<?xml version="1.0" encoding="UTF-8"?>
<svg xmlns="http://www.w3.org/2000/svg" viewBox="0 0 640 480">
  <defs>
    <style>
      .cls-1 {
        fill: #000001;
      }

      .cls-2 {
        fill: #039;
      }

      .cls-3 {
        fill: #309e3a;
      }

      .cls-4 {
        fill: #ffffef;
      }

      .cls-4, .cls-5, .cls-6, .cls-7, .cls-8, .cls-9 {
        fill-rule: evenodd;
      }

      .cls-10 {
        stroke-miterlimit: 4.27;
        stroke-width: .53px;
      }

      .cls-10, .cls-11, .cls-6, .cls-12, .cls-13 {
        stroke: #000;
      }

      .cls-10, .cls-6, .cls-12, .cls-14 {
        fill: #ff0;
      }

      .cls-15, .cls-5, .cls-11 {
        fill: #fff;
      }

      .cls-16, .cls-13 {
        fill: red;
      }

      .cls-11 {
        stroke-width: .75px;
      }

      .cls-11, .cls-12, .cls-13 {
        stroke-miterlimit: 4.27;
      }

      .cls-6 {
        stroke-linecap: round;
        stroke-linejoin: round;
        stroke-width: .6px;
      }

      .cls-12, .cls-13 {
        stroke-width: .53px;
      }

      .cls-7 {
        fill: #2b49a3;
      }

      .cls-8 {
        fill: #f8e509;
      }

      .cls-17 {
        fill: #f7ffff;
      }

      .cls-9 {
        fill: #229e45;
      }
    </style>
  </defs>
  <g id="flag-icons-br">
    <path class="cls-9" d="M0,0h508.48v480H0V0Z"/>
    <g>
      <path class="cls-8" d="M201.7,367.16l195.61-126.97-196.77-127.35L4.28,240.45l197.42,126.71Z"/>
      <path class="cls-7" d="M286.95,240c0,45.61-37.04,82.59-82.78,82.59-45.65-.07-82.6-37.14-82.52-82.78.07-45.65,37.14-82.6,82.78-82.52,45.62.07,82.56,37.1,82.52,82.72"/>
      <path class="cls-4" d="M176.99,289.5l-2.6-1.49-2.6,1.3.58-2.92-2.08-2.21,2.92-.32,1.43-2.6,1.23,2.72,2.85.52-2.14,1.95M232.39,303.51l-2.53-1.49-2.6,1.3.52-2.92-2.01-2.14,2.92-.32,1.36-2.66,1.3,2.72,2.85.52-2.21,2.01M208.52,281.07l-2.21-1.3-2.27,1.17.52-2.53-1.82-1.88,2.6-.26,1.17-2.34,1.04,2.4,2.53.45-1.95,1.75M264.57,273.02l-2.21-1.3-2.27,1.17.52-2.53-1.75-1.82,2.53-.26,1.17-2.27,1.04,2.34,2.47.45-1.88,1.69M207.54,256.22l-2.6-1.43-2.6,1.3.52-2.98-2.01-2.14,2.92-.32,1.36-2.66,1.3,2.72,2.85.52-2.21,2.08M139.23,230.59l-2.6-1.43-2.6,1.3.65-2.98-2.14-2.14,2.98-.32,1.3-2.66,1.3,2.72,2.85.52-2.14,2.01M147.47,264.72l-2.6-1.49-2.6,1.3.58-2.92-2.08-2.14,2.92-.39,1.36-2.6,1.3,2.72,2.85.52-2.14,2.01M232.72,218.07l-2.34-1.3-2.34,1.17.52-2.6-1.82-1.95,2.6-.32,1.23-2.34,1.1,2.47,2.6.45-1.95,1.75M227.98,240.26l-1.75-1.04-1.88.91.39-2.08-1.43-1.49,2.08-.26.97-1.82.84,1.95,1.95.32-1.43,1.43M135.46,270.88l-1.75-.97-1.75.84.39-1.95-1.36-1.43,1.95-.26.91-1.75.84,1.82,1.95.39-1.49,1.3M265.02,278.8l-1.43-.71-1.43.65.32-1.49-1.1-1.04,1.56-.19.78-1.3.65,1.3,1.62.32-1.23.97"/>
      <path class="cls-4" d="M135.46,270.88l-1.75-.97-1.75.84.39-1.95-1.36-1.43,1.95-.26.91-1.75.84,1.82,1.95.39-1.49,1.3"/>
      <path class="cls-4" d="M135.46,270.88l-1.75-.97-1.75.84.39-1.95-1.36-1.43,1.95-.26.91-1.75.84,1.82,1.95.39-1.49,1.3M162.58,270.82l-1.69-.91-1.75.84.39-1.95-1.36-1.43,1.95-.26.91-1.75.84,1.82,1.95.32-1.49,1.36M159.21,279.9l-1.69-.97-1.75.91.39-1.95-1.36-1.49,1.95-.26.91-1.75.84,1.82,1.95.39-1.49,1.3M215.65,263.49l-1.69-1.04-1.82.91.39-1.95-1.3-1.49,1.95-.19.91-1.75.78,1.82,1.95.32-1.43,1.36M199.11,263.42l-1.75-.97-1.75.91.39-1.95-1.3-1.49,1.95-.19.91-1.82.78,1.88,1.95.32-1.43,1.36M154.21,257.71l-1.1-.65-1.1.52.26-1.23-.84-.91,1.23-.13.52-1.1.52,1.17,1.23.19-.91.84M262.88,285.87l-1.69-.97-1.75.91.39-1.95-1.36-1.49,1.95-.26.91-1.75.84,1.82,1.95.39-1.49,1.3M249.13,287.75l-1.43-.91-1.49.78.32-1.69-1.1-1.17,1.62-.19.78-1.49.65,1.56,1.62.26-1.23,1.17M255.62,287.56l-1.3-.78-1.36.65.26-1.49-1.04-1.1,1.49-.19.71-1.3.65,1.3,1.49.32-1.1,1.04M274.3,271.21l-1.3-.65-1.3.65.32-1.49-1.04-1.1,1.49-.19.65-1.3.65,1.36,1.36.26-1.04,1.04M248.93,296.9l-1.62-.91-1.75.78.39-1.82-1.3-1.3,1.95-.19.84-1.62.78,1.69,1.95.32-1.49,1.23M249.06,304.29l-1.56-.91-1.56.84.39-1.82-1.23-1.3,1.75-.26.78-1.62.71,1.69,1.75.32-1.3,1.3M236.48,287.56l-1.23-.78-1.3.65.26-1.43-.97-1.1,1.43-.13.65-1.3.65,1.3,1.43.26-1.04,1.04M224.8,287.56l-1.3-.78-1.3.65.32-1.43-1.04-1.1,1.49-.13.65-1.3.65,1.3,1.36.26-1.04,1.04M204.88,270.1l-1.3-.71-1.3.65.32-1.49-1.04-1.04,1.43-.19.65-1.3.65,1.3,1.43.32-1.04.97M207.09,305.59l-1.04-.58-1.17.58.26-1.3-.84-.91,1.23-.13.58-1.1.52,1.17,1.23.19-.91.84M176.99,248.17l-2.6-1.49-2.6,1.3.58-2.92-2.08-2.14,2.92-.39,1.43-2.6,1.23,2.72,2.85.52-2.14,2.01"/>
      <path class="cls-5" d="M281.5,269.71c1.61-4.17,2.86-8.47,3.76-12.85-43.99-38.6-92.97-58.39-154.86-54.3-2.24,4.34-4.09,8.88-5.51,13.56,73.31-7.01,127.16,25.43,156.61,53.59"/>
      <path class="cls-3" d="M261.78,248.04l1.49.84c-.25.43-.31.94-.19,1.43.15.47.48.86.91,1.1.43.35.87.5,1.3.45.39,0,.67-.15.84-.45l.13-.58-.32-.65c-.13-.22-.45-.61-.97-1.17-.53-.55-.93-1.22-1.17-1.95-.26-1.13.27-2.3,1.3-2.85.47-.19.99-.23,1.49-.13.61.14,1.18.41,1.69.78.91.65,1.47,1.34,1.69,2.08.19.74.05,1.52-.39,2.14l-1.56-.97c.22-.43.26-.8.13-1.1-.09-.35-.35-.65-.78-.91-.33-.28-.74-.44-1.17-.45-.24,0-.46.12-.58.32-.13.17-.15.39-.06.65.09.35.43.82,1.04,1.43s1.04,1.15,1.3,1.62c.46.87.38,1.93-.19,2.72-.3.44-.73.78-1.23.97-.49.22-1.03.29-1.56.19-.56-.13-1.17-.41-1.82-.84-.95-.65-1.54-1.36-1.75-2.14-.24-.88-.1-1.82.39-2.6l.06.06ZM254.25,243.11l1.62.84c-.22.44-.27.95-.13,1.43.17.45.49.81.91,1.04.48.35.91.48,1.3.39.39,0,.67-.17.84-.52l.13-.52c0-.22-.11-.43-.32-.65l-1.04-1.17c-.74-.69-1.17-1.3-1.3-1.82-.19-.68-.1-1.4.26-2.01.26-.39.62-.7,1.04-.91.45-.2.94-.27,1.43-.19.6.1,1.17.32,1.69.65.99.65,1.58,1.32,1.75,2.01.25.74.15,1.55-.26,2.21l-1.62-.91c.22-.43.26-.8.13-1.1-.17-.43-.45-.74-.84-.91-.35-.27-.79-.4-1.23-.39-.22.01-.41.14-.52.32-.13.17-.15.39-.06.65.13.35.5.82,1.1,1.43.65.65,1.08,1.17,1.3,1.56.52.84.52,1.89,0,2.72-.27.46-.68.82-1.17,1.04-.49.22-1.03.29-1.56.19-.67-.11-1.31-.36-1.88-.71-.84-.45-1.48-1.19-1.82-2.08-.28-.86-.19-1.8.26-2.6M245.04,240.65l4.74-7.79,5.71,3.57-.78,1.3-4.15-2.6-1.04,1.75,3.89,2.4-.84,1.3-3.89-2.4-1.3,2.14,4.35,2.6-.78,1.3-5.9-3.57ZM231.61,229.62l.71-1.3,3.5,1.75-1.62,3.24c-.52.13-1.17.17-1.95.13-.75-.08-1.48-.3-2.14-.65-.78-.39-1.45-.97-1.95-1.69-.45-.67-.67-1.46-.65-2.27.04-.84.26-1.66.65-2.4.39-.78.97-1.45,1.69-1.95.68-.48,1.5-.73,2.34-.71.61,0,1.3.22,2.08.65,1.04.48,1.71,1.08,2.01,1.82.34.71.41,1.52.19,2.27l-1.75-.52c.11-.43.06-.89-.13-1.3-.17-.39-.52-.69-1.04-.91-.62-.33-1.34-.4-2.01-.19-.65.22-1.21.78-1.69,1.69-.48.91-.63,1.73-.45,2.47.2.67.67,1.24,1.3,1.56.35.22.71.32,1.1.32h1.17l.52-1.04-1.88-.97ZM173.09,215.15l1.3-9.08,2.72.45.71,6.36,2.53-5.84,2.72.39-1.3,8.95-1.75-.26,1.1-7.07-2.85,6.81-1.75-.26-.71-7.33-1.04,7.14-1.69-.26ZM163.95,214.05l.84-9.08,6.68.65-.13,1.56-4.87-.45-.19,1.95,4.54.45-.19,1.56-4.54-.45-.19,2.47,5.06.45-.13,1.56-6.88-.65Z"/>
      <g>
        <path class="cls-3" d="M133.65,208.4c0-.95.15-1.73.45-2.34.23-.46.54-.88.91-1.23.33-.34.73-.61,1.17-.78.65-.22,1.3-.32,1.95-.32,1.34.04,2.42.48,3.24,1.3.84.99,1.22,2.29,1.04,3.57,0,1.43-.43,2.57-1.3,3.44-.9.78-2.06,1.17-3.24,1.1-1.17-.02-2.28-.48-3.11-1.3-.83-.94-1.23-2.19-1.1-3.44"/>
        <path class="cls-17" d="M135.53,208.4c0,.99.22,1.77.65,2.34.43.56,1.04.84,1.82.84.68,0,1.33-.25,1.82-.71.43-.52.67-1.32.71-2.4.04-1.04-.17-1.82-.65-2.34-.45-.5-1.08-.8-1.75-.84-.68,0-1.34.29-1.82.78-.48.52-.74,1.3-.78,2.34"/>
      </g>
      <g>
        <path class="cls-3" d="M144.35,213.08l.13-9.08h3.89c.95,0,1.64.11,2.08.32.43.13.78.41,1.04.84.39.65.39.91.39,1.49,0,.62-.24,1.22-.65,1.69-.49.43-1.1.7-1.75.78l.97.78c.26.26.58.76.97,1.49l1.1,1.82h-2.21l-1.3-2.08-.91-1.3-.58-.39-.91-.13h-.39v3.76h-1.88Z"/>
        <path class="cls-15" d="M146.3,207.89h1.3c.91,0,1.47-.04,1.69-.13.22-.04.39-.15.52-.32.17-.26.24-.48.19-.65,0-.39-.09-.65-.26-.78-.13-.17-.35-.3-.65-.39h-1.3l-1.49-.06v2.34Z"/>
      </g>
      <g>
        <path class="cls-3" d="M154.73,204.45l3.37.19c.74,0,1.3.06,1.69.19.5.19.95.5,1.3.91.37.45.64.99.78,1.56.17.61.24,1.32.19,2.14,0,.66-.11,1.32-.32,1.95-.26.65-.63,1.17-1.1,1.56-.38.31-.82.53-1.3.65-.43.13-.97.17-1.62.13l-3.44-.19.45-9.08Z"/>
        <path class="cls-15" d="M156.48,206.07l-.32,6.03h2.47c.35,0,.61-.11.78-.32.22-.17.39-.45.52-.84s.22-.95.26-1.69l-.06-1.62c-.09-.34-.27-.66-.52-.91l-.78-.45-1.49-.19h-.84Z"/>
      </g>
      <g>
        <path class="cls-3" d="M199.24,220.67l2.14-8.82,2.85.65,2.08.65c.48.26.82.67,1.04,1.23.22.56.26,1.17.13,1.82-.13.52-.35.95-.65,1.3-.49.57-1.2.9-1.95.91-.43,0-1.08-.11-1.95-.32l-1.1-.32-.78,3.37-1.82-.45Z"/>
        <path class="cls-15" d="M202.74,213.79l-.52,2.47.97.26c.69.17,1.17.24,1.43.19.51-.09.92-.47,1.04-.97,0-.3-.04-.58-.13-.84-.14-.26-.37-.47-.65-.58l-1.23-.32-.84-.19h-.06Z"/>
      </g>
      <g>
        <path class="cls-3" d="M207.67,223.2l3.05-8.56,3.57,1.3c.95.35,1.6.65,1.95.91.35.3.56.69.65,1.17.13.71.13.97,0,1.49-.26.65-.65,1.12-1.17,1.43-.52.26-1.17.32-1.95.19.26.3.48.65.65,1.04l.52,1.75.39,2.01-2.01-.71-.65-2.34-.45-1.56-.39-.52c-.13-.17-.41-.32-.84-.45l-.32-.13-1.3,3.63-1.69-.65Z"/>
        <path class="cls-15" d="M211.18,218.85l1.23.45c.87.3,1.41.45,1.62.45s.41-.06.58-.19c.22-.13.35-.32.39-.58.13-.26.13-.52,0-.78-.11-.24-.29-.45-.52-.58l-1.3-.45-1.3-.45-.78,2.14h.06Z"/>
      </g>
      <g>
        <path class="cls-3" d="M218.31,222.87c.22-.76.6-1.47,1.1-2.08.33-.39.73-.72,1.17-.97l1.3-.45c.65-.04,1.32.04,2.01.26,1.16.33,2.14,1.1,2.72,2.14.52,1.04.56,2.27.13,3.7-.29,1.24-1.09,2.3-2.21,2.92-.99.56-2.12.65-3.37.26-1.16-.33-2.14-1.1-2.72-2.14-.55-1.14-.59-2.46-.13-3.63"/>
        <path class="cls-15" d="M220.13,223.39c-.3.99-.3,1.82,0,2.47.45.97.78,1.04,1.49,1.3.65.22,1.3.13,1.95-.26.61-.35,1.06-1.04,1.36-2.08.35-.95.35-1.75,0-2.4-.29-.6-.8-1.06-1.43-1.3-.65-.19-1.35-.12-1.95.19-.65.35-1.12,1.04-1.43,2.08"/>
      </g>
      <g>
        <path class="cls-3" d="M236.02,235.52l4.15-8.04,3.44,1.75c.65.31,1.24.73,1.75,1.23.35.3.52.71.52,1.23,0,.78,0,.97-.26,1.43-.26.58-.72,1.04-1.3,1.3-.65.17-1.32.13-2.01-.13.26.43.43.8.52,1.1.13.39.22.99.26,1.82l.13,2.08-1.95-.97-.26-2.4-.19-1.62-.32-.65-.78-.45-.32-.19-1.75,3.37-1.62-.84Z"/>
        <path class="cls-15" d="M240.05,231.7l1.23.65c.78.43,1.28.65,1.49.65s.43-.04.65-.13c.17-.09.32-.26.45-.52.13-.26.17-.52.13-.78l-.45-.65-1.17-.65-1.3-.65-1.04,2.08Z"/>
      </g>
      <g>
        <path class="cls-3" d="M269.63,252.13c.42-.67.97-1.24,1.62-1.69.44-.27.92-.47,1.43-.58.47-.09.96-.09,1.43,0,.65.13,1.25.39,1.82.78,1,.66,1.7,1.68,1.95,2.85.17,1.12-.13,2.31-.91,3.57-.63,1.09-1.69,1.86-2.92,2.14-1.17.21-2.39-.04-3.37-.71-1-.66-1.7-1.68-1.95-2.85-.17-1.17.13-2.34.91-3.5"/>
        <path class="cls-15" d="M271.25,253.17c-.61.87-.84,1.64-.71,2.34.13.65.5,1.23,1.04,1.62.65.43,1.3.56,1.95.39s1.28-.69,1.88-1.56c.61-.91.84-1.69.71-2.34-.13-.65-.48-1.21-1.04-1.69-.91-.71-1.3-.52-1.95-.32-.65.13-1.3.65-1.95,1.56h.06Z"/>
      </g>
      <path class="cls-3" d="M188.99,216.97l1.49-6.36,4.67,1.1-.19,1.04-3.44-.78-.32,1.43,3.18.71-.26,1.1-3.18-.78-.39,1.75,3.57.84-.26,1.04-4.87-1.1Z"/>
    </g>
  </g>
  <g id="Layer_2">
    <path class="cls-16" d="M508.48,0h131.52v480h-131.52V0Z"/>
    <g>
      <path class="cls-6" d="M591.98,306.2c-32.3-1-180-93.2-181-108l8.1-13.5c14.7,21.3,165.7,111,180.6,107.8l-7.7,13.7Z"/>
      <path class="cls-6" d="M417.38,182.8c-2.9,7.8,38.6,33.4,88.4,63.8s92.9,49,96,46.4l1.5-2.8c-.6,1.07-2.03,1.27-4.3.6-13.5-3.9-48.6-20-92.1-46.4-43.6-26.4-81.4-50.7-87.3-61-.47-.96-.68-2.03-.6-3.1h-.2l-1.2,2.2-.2.3ZM592.68,306.6c-.47.87-1.63,1.13-3.5.8-12-1.3-48.6-19.1-91.9-45-50.4-30.2-92-57.6-87.4-64.8l1.2-2.2.2.1c-4,12.2,82.1,61.4,87.2,64.6,49.8,30.8,91.8,48.9,95.5,44.2l-1.3,2.3Z"/>
      <path class="cls-6" d="M508.68,207.2c32.2-.3,72-4.4,95-13.6l-5-8c-13.5,7.5-53.5,12.5-90.3,13.2-43.4-.4-74.1-4.5-89.5-14.8l-4.6,8.6c28.2,12,57.2,14.5,94.4,14.6"/>
      <path class="cls-6" d="M604.98,193.8c-.8,1.3-15.8,6.4-37.8,10.2-19.39,2.94-38.99,4.38-58.6,4.3-18.79.07-37.57-1.13-56.2-3.6-23.1-3.6-35-8.6-39.5-10.4l1.1-2.2c12.7,5,24.7,8,38.7,10.2,18.49,2.5,37.14,3.73,55.8,3.7,19.51.02,39-1.42,58.3-4.3,22.5-3.7,34.8-8.4,36.6-10.5l1.6,2.6ZM600.58,185.7c-2.4,2-14.6,6.3-36,9.7-18.48,2.67-37.13,4.01-55.8,4-22,0-40.1-1.6-53.8-3.6-21.8-2.8-33.4-8-37.6-9.4l1.3-2.2c3.3,1.7,14.4,6.2,36.5,9.3,17.77,2.38,35.68,3.52,53.6,3.4,18.54,0,37.05-1.33,55.4-4,21.5-3,33.1-8.4,34.9-9.8l1.5,2.6ZM402.78,246c19.8,10.7,63.9,16,105.6,16.4,38,.1,87.4-5.8,105.9-15.6l-.5-10.7c-5.8,9-58.8,17.7-105.8,17.4s-90.7-7.6-105.3-17v9.5"/>
      <path class="cls-6" d="M615.28,244.5v2.5c-2.8,3.4-20.2,8.4-42,12-21.66,3.11-43.52,4.58-65.4,4.4-20.75.18-41.48-1.26-62-4.3-15.31-1.77-30.28-5.81-44.4-12v-2.9c9.7,6.4,35.9,11.2,44.7,12.6,15.8,2.4,36.1,4.2,61.7,4.2,26.9,0,48.4-1.9,65-4.4,15.7-2.3,38-8.2,42.4-12.1M615.28,235.5v2.5c-2.8,3.3-20.2,8.3-42,11.9-21.66,3.15-43.52,4.65-65.4,4.5-20.75.12-41.47-1.32-62-4.3-15.31-1.77-30.28-5.81-44.4-12v-3c9.7,6.5,36,11.2,44.7,12.6,20.43,2.99,41.05,4.43,61.7,4.3,26.9,0,48.5-2,65-4.5,15.7-2.2,38-8.1,42.4-12M508.28,304.3c-45.6-.2-84.7-12.4-93-14.4l6,9.4c28.05,9.93,57.65,14.77,87.4,14.3,34.7-1,65-3.7,86.3-14.1l6.2-9.8c-14.5,6.9-64,14.6-93,14.6"/>
      <path class="cls-6" d="M597.38,297.3l-2.8,4c-10,3.6-26,7.4-32.6,8.4-17.71,3.3-35.69,4.97-53.7,5-40.4-.6-73.5-8.5-89-15.3l-1.3-2.1.2-.4,2.1.9c28.46,9.41,58.22,14.3,88.2,14.5,18.8,0,37.5-2.1,52.6-4.8,23.2-4.7,32.6-8.2,35.5-9.8l.7-.4h.1ZM602.68,288.5l-2,3.5c-5.4,2-20,6.2-41.3,9.2-14,1.9-22.7,3.8-50.6,4.3-31.89-.32-63.59-5.03-94.2-14l-1.1-2.5c31.1,8.59,63.14,13.3,95.4,14,25.5-.5,36.4-2.4,50.3-4.3,24.8-3.8,37.3-8,41-9.1v-.2l2.6-1-.1.1Z"/>
      <path class="cls-6" d="M603.28,237.6c.1,30-15.3,57-27.6,68.8-18.15,17.74-42.42,27.84-67.8,28.2-30.3.5-58.8-19.2-66.5-27.9-17.23-18.27-27.03-42.3-27.5-67.4,1.8-32.8,14.7-55.6,33.3-71.3,18.09-14.84,40.8-22.88,64.2-22.7,27.63,1.31,53.42,14.24,71,35.6,12.5,15.2,18,31.7,20.9,56.7M508.08,135c58.23,0,105.56,46.97,106,105.2,0,58.38-47.32,105.7-105.7,105.7s-105.7-47.32-105.7-105.7c-.1-58,47.3-105.2,105.4-105.2"/>
      <path class="cls-6" d="M508.38,134.5c58.2,0,105.6,47.4,105.6,105.6s-47.4,105.6-105.5,105.6-105.6-47.4-105.6-105.6,47.4-105.6,105.6-105.6h-.1ZM405.08,240c0,56.8,46.7,103.3,103.3,103.3s103.3-46.5,103.3-103.3-46.7-103.3-103.3-103.3-103.3,46.5-103.3,103.3"/>
      <path class="cls-6" d="M508.48,143.3c53.34.16,96.54,43.36,96.7,96.7-.11,53.38-43.32,96.64-96.7,96.8-53,0-96.7-43.6-96.7-96.8.16-53.34,43.36-96.54,96.7-96.7M414.08,240c0,52,42.6,94.4,94.4,94.4s94.4-42.5,94.4-94.4-42.6-94.4-94.4-94.4c-52,.33-94.07,42.4-94.4,94.4"/>
      <path class="cls-6" d="M512.78,134h-9.1v212.3h9l.1-212.3Z"/>
      <path class="cls-6" d="M511.78,132.8h2.3v214.7h-2.2v-214.7h-.1ZM502.78,132.8h2.4v214.7h-2.3l-.1-214.7Z"/>
      <path class="cls-6" d="M614.08,244.2v-7.8l-6.4-6-36.3-9.6-52.2-5.3-63,3.2-44.8,10.6-9,6.7v7.9l22.9-10.3,54.4-8.5h52.3l38.4,4.2,26.6,6.4,17.1,8.5Z"/>
      <path class="cls-6" d="M508.48,223.8c24.9,0,49,2.3,68.3,6,19.8,4,33.7,9,38.5,14.5v2.8c-5.8-7-24.5-12-39-15-19-3.6-43-6-67.9-6s-50.5,2.6-69.3,6.2c-15,3-35.1,9-37.6,14.8v-2.9c1.3-4,16.3-10,37.3-14.3,18.9-3.7,43.3-6.1,69.6-6.1h.1ZM508.48,214.7c22.9-.05,45.76,1.96,68.3,6,19.8,4,33.7,9,38.5,14.6v2.7c-5.8-6.9-24.5-12-39-14.9-19-3.7-43-6-67.9-6-23.21-.07-46.37,2-69.2,6.2-14.5,2.7-35.4,8.9-37.7,14.7v-2.8c1.4-4,16.6-10.3,37.3-14.3,19-3.7,43.3-6.2,69.7-6.2M507.88,168.5c39.3-.2,73.6,5.5,89.3,13.5l5.7,10c-13.6-7.4-50.6-15-94.9-14-36.1.3-74.7,4-94,14.4l6.8-11.4c15.9-8.3,53.3-12.5,87.1-12.5"/>
      <path class="cls-6" d="M508.48,176.7c20.52-.35,41.03,1.09,61.3,4.3,16,3,31.3,7.4,33.5,9.8l1.7,3c-5.3-3.4-18.6-7.3-35.6-10.5s-38.7-4.3-61-4.2c-25.3-.1-45,1.2-61.8,4.2-11.58,1.62-22.82,5.1-33.3,10.3l1.7-3.1c6-3,15.3-6.7,31.1-9.6,17.5-3.2,37.4-4.1,62.4-4.2M508.48,167.7c21.4-.2,42.6,1,59.1,4,10.69,1.59,21.04,4.97,30.6,10l2.5,4c-4.2-4.7-20-9.2-34.1-11.6-16.4-2.9-36.7-4-58.1-4.2-19.92-.18-39.82,1.29-59.5,4.4-10.29,1.43-20.28,4.5-29.6,9.1l2.2-3.3c5.8-3,15.2-5.8,27-8.1,19.81-3.15,39.85-4.62,59.9-4.4v.1ZM560.88,284c-17.33-3-34.91-4.34-52.5-4-65.5.8-86.6,13.5-89.2,17.3l-5-8c16.8-12,52.4-18.8,94.6-18.2,21.93.33,40.8,2,56.6,5l-4.5,8"/>
      <path class="cls-6" d="M508.08,278.9c18.2.3,36,1,53.3,4.2l-1.2,2.2c-16-3-33.2-4-52-4-24.3-.2-48.7,2.1-70,8.2-6.7,1.9-17.8,6.2-19,9.8l-1.2-2c.4-2.2,7-6.6,19.6-10,24.4-7,47.2-8.3,70.5-8.4M508.88,269.7c19.21-.02,38.38,1.65,57.3,5l-1.3,2.3c-18.47-3.39-37.22-5.03-56-4.9-24.2,0-49.9,1.8-73.3,8.6-7.5,2.2-20.6,7-21,10.7l-1.2-2.2c.2-3.4,11.5-7.9,21.7-10.8,23.5-6.9,49.3-8.6,73.8-8.7"/>
      <path class="cls-6" d="M601.88,290.5l-7.8,12.3-22.7-20.1-58.6-39.5-66.2-36.3-34.3-11.7,7.3-13.6,2.5-1.3,21.3,5.3,70.4,36.3,40.6,25.6,34.1,24.5,13.9,16-.5,2.5Z"/>
      <path class="cls-6" d="M411.08,195.5c6-4,50.2,15.6,96.6,43.6,46.1,28,90.3,59.6,86.3,65.5l-1.3,2.1-.6.5c.1-.1.8-1,0-3.1-2-6.5-33.4-31.5-85.3-62.9-50.7-30.1-92.9-48.3-97-43.1l1.3-2.6ZM603.48,290.4c3.8-7.6-37.2-38.5-88.1-68.6-52-29.5-89.6-46.9-96.5-41.7l-1.4,2.9c-.07,0,.07-.17.4-.5,1.2-1,3.3-1,4.2-1,11.8.2,45.5,15.7,92.8,42.8,20.8,12,87.6,55,87.3,67,0,1,.1,1.2-.3,1.8l1.7-2.6-.1-.1Z"/>
    </g>
    <g>
      <path class="cls-11" d="M445.12,251.77c.07,16.72,6.78,32.72,18.67,44.48,11.77,11.95,27.82,18.71,44.59,18.77,16.81.05,32.95-6.64,44.8-18.56,11.87-11.8,18.55-27.85,18.56-44.59v-84.48l-126.61-.21v84.59Z"/>
      <path class="cls-13" d="M447.68,251.87c0,16.05,6.46,31.43,17.92,42.67,11.36,11.42,26.78,17.86,42.88,17.92,16.07,0,31.49-6.37,42.88-17.71,11.42-11.25,17.84-26.63,17.81-42.67v-82.13h-121.49v81.92M544.75,194.59v52.16l-.11,5.44c.1,9.63-3.76,18.89-10.67,25.6-6.78,6.81-15.99,10.64-25.6,10.67-10.03,0-18.88-4.27-25.49-10.88-6.81-6.78-10.64-15.99-10.67-25.6v-57.6l72.53.21Z"/>
      <g id="pt-e">
        <g id="pt-d">
          <path class="cls-14" d="M455.36,191.39c.11-5.87,4.27-7.25,4.27-7.25.11,0,4.59,1.49,4.59,7.36l-8.85-.11Z"/>
          <path class="cls-12" d="M451.73,184.25l-.75,6.72h4.48c0-5.55,4.27-6.4,4.27-6.4.11,0,4.27,1.17,4.37,6.4h4.48l-.85-6.83-16,.11ZM450.67,191.07h18.13c.36,0,.57.25.64.75,0,.57-.21.85-.64.85h-18.13c-.36,0-.57-.28-.64-.85,0-.5.25-.75.75-.75h-.11Z"/>
          <path class="cls-12" d="M457.28,190.97c0-3.52,2.45-4.48,2.45-4.48,0,0,2.45,1.07,2.45,4.48h-4.91M451.09,181.37h17.39c.36.07.57.36.64.85,0,.36-.21.57-.64.64h-17.39c-.36,0-.57-.25-.64-.75,0-.36.21-.57.64-.64v-.11ZM451.52,182.97h16.43c.36,0,.57.25.64.75.07.5-.14.75-.64.75h-16.53c-.43,0-.64-.25-.64-.75,0-.5.21-.75.64-.75h.11ZM456.85,171.66h1.28v.85h.96v-.85h1.39v.96h.96v-1.07h1.28v2.13c0,.43-.18.64-.53.64h-4.69c-.36,0-.57-.18-.64-.53v-2.13ZM461.76,174.54l.32,6.83h-4.59l.32-6.93h3.95"/>
          <path id="pt-a" class="cls-12" d="M456.21,177.74v3.63h-4.27v-3.63h4.27Z"/>
          <path id="pt-a-2" data-name="pt-a" class="cls-12" d="M467.52,177.74v3.63h-4.27v-3.63h4.27Z"/>
          <path id="pt-b" class="cls-12" d="M451.2,174.97h1.28v1.07h.96v-1.07h1.28v1.07h.96v-1.07h1.28v2.13c0,.43-.18.64-.53.64h-4.59c-.3-.11-.53-.34-.64-.64v-2.13Z"/>
          <path id="pt-b-2" data-name="pt-b" class="cls-12" d="M462.51,174.97h1.28v1.07h.96v-1.07h1.28v1.07h.96v-1.07h1.28v2.13c0,.43-.18.64-.53.64h-4.59c-.3-.11-.53-.34-.64-.64v-2.13Z"/>
          <path class="cls-1" d="M459.31,176.67c0-.64.96-.64.96,0v1.71h-.96v-1.71Z"/>
          <path id="pt-c" class="cls-1" d="M453.65,179.02c0-.64.85-.64.85,0v1.28h-.85v-1.28Z"/>
          <path id="pt-c-2" data-name="pt-c" class="cls-1" d="M464.96,179.02c0-.64.85-.64.85,0v1.28h-.85v-1.28Z"/>
        </g>
        <g id="pt-d-2" data-name="pt-d">
          <path class="cls-14" d="M455.36,240.78c.11-5.87,4.27-7.25,4.27-7.25.11,0,4.59,1.49,4.59,7.36l-8.85-.11Z"/>
          <path class="cls-12" d="M451.73,233.63l-.75,6.72h4.48c0-5.55,4.27-6.4,4.27-6.4.11,0,4.27,1.17,4.37,6.4h4.48l-.85-6.83-16,.11ZM450.67,240.46h18.13c.36,0,.57.25.64.75,0,.57-.21.85-.64.85h-18.13c-.36,0-.57-.28-.64-.85,0-.5.25-.75.75-.75h-.11Z"/>
          <path class="cls-12" d="M457.28,240.35c0-3.52,2.45-4.48,2.45-4.48,0,0,2.45,1.07,2.45,4.48h-4.91M451.09,230.75h17.39c.36.07.57.36.64.85,0,.36-.21.57-.64.64h-17.39c-.36,0-.57-.25-.64-.75,0-.36.21-.57.64-.64v-.11ZM451.52,232.35h16.43c.36,0,.57.25.64.75.07.5-.14.75-.64.75h-16.53c-.43,0-.64-.25-.64-.75,0-.5.21-.75.64-.75h.11ZM456.85,221.05h1.28v.85h.96v-.85h1.39v.96h.96v-1.07h1.28v2.13c0,.43-.18.64-.53.64h-4.69c-.36,0-.57-.18-.64-.53v-2.13ZM461.76,223.93l.32,6.83h-4.59l.32-6.93h3.95"/>
          <path id="pt-a-3" data-name="pt-a" class="cls-12" d="M456.21,227.13v3.63h-4.27v-3.63h4.27Z"/>
          <path id="pt-a-4" data-name="pt-a" class="cls-12" d="M467.52,227.13v3.63h-4.27v-3.63h4.27Z"/>
          <path id="pt-b-3" data-name="pt-b" class="cls-12" d="M451.2,224.35h1.28v1.07h.96v-1.07h1.28v1.07h.96v-1.07h1.28v2.13c0,.43-.18.64-.53.64h-4.59c-.3-.11-.53-.34-.64-.64v-2.13Z"/>
          <path id="pt-b-4" data-name="pt-b" class="cls-12" d="M462.51,224.35h1.28v1.07h.96v-1.07h1.28v1.07h.96v-1.07h1.28v2.13c0,.43-.18.64-.53.64h-4.59c-.3-.11-.53-.34-.64-.64v-2.13Z"/>
          <path class="cls-1" d="M459.31,226.06c0-.64.96-.64.96,0v1.71h-.96v-1.71Z"/>
          <path id="pt-c-3" data-name="pt-c" class="cls-1" d="M453.65,228.41c0-.64.85-.64.85,0v1.28h-.85v-1.28Z"/>
          <path id="pt-c-4" data-name="pt-c" class="cls-1" d="M464.96,228.41c0-.64.85-.64.85,0v1.28h-.85v-1.28Z"/>
        </g>
        <g id="pt-d-3" data-name="pt-d">
          <path class="cls-14" d="M474.61,292.25c-4.09-4.21-2.14-8.14-2.14-8.14.08-.08,4.29-2.2,8.45,1.93l-6.31,6.21Z"/>
          <path class="cls-10" d="M466.98,289.79l4.24,5.26,3.16-3.18c-3.94-3.91-1.53-7.54-1.53-7.54.08-.08,3.84-2.2,7.62,1.41l3.16-3.18-5.45-4.2-11.2,11.43ZM471.08,295.36l12.78-12.87c.25-.25.58-.23.98.07.4.4.46.75.15,1.06l-12.78,12.87c-.25.25-.6.2-1.06-.15-.35-.35-.35-.7,0-1.06l-.08.08Z"/>
          <path class="cls-10" d="M475.66,290.59c-2.5-2.48-1.45-4.9-1.45-4.9,0,0,2.49-.99,4.91,1.42l-3.46,3.48M464.49,288.21l12.25-12.34c.3-.2.65-.15,1.06.15.25.25.25.55,0,.91l-12.25,12.34c-.25.25-.58.23-.98-.07-.25-.25-.25-.55,0-.91l-.08-.08ZM465.93,289.04l11.57-11.66c.25-.25.58-.23.98.07.4.3.43.63.08.98l-11.65,11.73c-.3.3-.63.28-.98-.07-.35-.35-.38-.68-.08-.98l.08-.08ZM461.66,277.29l.9-.91.61.6.68-.68-.61-.6.98-.98.68.68.68-.68-.76-.75.9-.91,1.51,1.5c.3.3.33.58.08.83l-3.31,3.33c-.25.25-.53.28-.83.08l-1.51-1.5ZM467.16,275.84l5.07,4.58-3.23,3.25-4.69-5.11,2.78-2.8"/>
          <path id="pt-a-5" data-name="pt-a" class="cls-10" d="M465.52,282.03l2.57,2.56-3.01,3.03-2.57-2.56,3.01-3.03Z"/>
          <path id="pt-a-6" data-name="pt-a" class="cls-10" d="M473.49,274l2.57,2.56-3.01,3.03-2.57-2.56,3.01-3.03Z"/>
          <path id="pt-b-5" data-name="pt-b" class="cls-10" d="M460.02,283.63l.9-.91.76.75.68-.68-.76-.75.9-.91.76.75.68-.68-.76-.75.9-.91,1.51,1.5c.3.3.33.58.08.83l-3.23,3.25c-.29.14-.62.14-.91,0l-1.51-1.5Z"/>
          <path id="pt-b-6" data-name="pt-b" class="cls-10" d="M467.99,275.61l.9-.91.76.75.68-.68-.76-.75.9-.91.76.75.68-.68-.76-.75.9-.91,1.51,1.5c.3.3.33.58.08.83l-3.23,3.25c-.29.14-.62.14-.91,0l-1.51-1.5Z"/>
          <path class="cls-1" d="M466.95,279.08c-.45-.45.22-1.13.68-.68l1.21,1.2-.68.68-1.21-1.2Z"/>
          <path id="pt-c-5" data-name="pt-c" class="cls-1" d="M464.63,284.74c-.45-.45.15-1.06.6-.61l.91.9-.6.61-.91-.9Z"/>
          <path id="pt-c-6" data-name="pt-c" class="cls-1" d="M472.6,276.72c-.45-.45.15-1.06.6-.61l.91.9-.6.61-.91-.9Z"/>
        </g>
      </g>
      <g id="pt-d-4" data-name="pt-d">
        <path class="cls-14" d="M504.11,191.39c.11-5.87,4.27-7.25,4.27-7.25.11,0,4.59,1.49,4.59,7.36l-8.85-.11Z"/>
        <path class="cls-12" d="M500.48,184.25l-.75,6.72h4.48c0-5.55,4.27-6.4,4.27-6.4.11,0,4.27,1.17,4.37,6.4h4.48l-.85-6.83-16,.11ZM499.41,191.07h18.13c.36,0,.57.25.64.75,0,.57-.21.85-.64.85h-18.13c-.36,0-.57-.28-.64-.85,0-.5.25-.75.75-.75h-.11Z"/>
        <path class="cls-12" d="M506.03,190.97c0-3.52,2.45-4.48,2.45-4.48,0,0,2.45,1.07,2.45,4.48h-4.91M499.84,181.37h17.39c.36.07.57.36.64.85,0,.36-.21.57-.64.64h-17.39c-.36,0-.57-.25-.64-.75,0-.36.21-.57.64-.64v-.11ZM500.27,182.97h16.43c.36,0,.57.25.64.75.07.5-.14.75-.64.75h-16.53c-.43,0-.64-.25-.64-.75,0-.5.21-.75.64-.75h.11ZM505.6,171.66h1.28v.85h.96v-.85h1.39v.96h.96v-1.07h1.28v2.13c0,.43-.18.64-.53.64h-4.69c-.36,0-.57-.18-.64-.53v-2.13ZM510.51,174.54l.32,6.83h-4.59l.32-6.93h3.95"/>
        <path id="pt-a-7" data-name="pt-a" class="cls-12" d="M504.96,177.74v3.63h-4.27v-3.63h4.27Z"/>
        <path id="pt-a-8" data-name="pt-a" class="cls-12" d="M516.27,177.74v3.63h-4.27v-3.63h4.27Z"/>
        <path id="pt-b-7" data-name="pt-b" class="cls-12" d="M499.95,174.97h1.28v1.07h.96v-1.07h1.28v1.07h.96v-1.07h1.28v2.13c0,.43-.18.64-.53.64h-4.59c-.3-.11-.53-.34-.64-.64v-2.13Z"/>
        <path id="pt-b-8" data-name="pt-b" class="cls-12" d="M511.25,174.97h1.28v1.07h.96v-1.07h1.28v1.07h.96v-1.07h1.28v2.13c0,.43-.18.64-.53.64h-4.59c-.3-.11-.53-.34-.64-.64v-2.13Z"/>
        <path class="cls-1" d="M508.05,176.67c0-.64.96-.64.96,0v1.71h-.96v-1.71Z"/>
        <path id="pt-c-7" data-name="pt-c" class="cls-1" d="M502.4,179.02c0-.64.85-.64.85,0v1.28h-.85v-1.28Z"/>
        <path id="pt-c-8" data-name="pt-c" class="cls-1" d="M513.71,179.02c0-.64.85-.64.85,0v1.28h-.85v-1.28Z"/>
      </g>
      <g id="pt-e-2" data-name="pt-e">
        <g id="pt-d-5" data-name="pt-d">
          <path class="cls-14" d="M561.39,191.39c-.11-5.87-4.27-7.25-4.27-7.25-.11,0-4.59,1.49-4.59,7.36l8.85-.11Z"/>
          <path class="cls-12" d="M565.02,184.25l.75,6.72h-4.48c0-5.55-4.27-6.4-4.27-6.4-.11,0-4.27,1.17-4.37,6.4h-4.48l.85-6.83,16,.11ZM566.08,191.07h-18.13c-.36,0-.57.25-.64.75,0,.57.21.85.64.85h18.13c.36,0,.57-.28.64-.85,0-.5-.25-.75-.75-.75h.11Z"/>
          <path class="cls-12" d="M559.47,190.97c0-3.52-2.45-4.48-2.45-4.48,0,0-2.45,1.07-2.45,4.48h4.91M565.66,181.37h-17.39c-.36.07-.57.36-.64.85,0,.36.21.57.64.64h17.39c.36,0,.57-.25.64-.75,0-.36-.21-.57-.64-.64v-.11ZM565.23,182.97h-16.43c-.36,0-.57.25-.64.75-.07.5.14.75.64.75h16.53c.43,0,.64-.25.64-.75,0-.5-.21-.75-.64-.75h-.11ZM559.9,171.66h-1.28v.85h-.96v-.85h-1.39v.96h-.96v-1.07h-1.28v2.13c0,.43.18.64.53.64h4.69c.36,0,.57-.18.64-.53v-2.13ZM554.99,174.54l-.32,6.83h4.59l-.32-6.93h-3.95"/>
          <path id="pt-a-9" data-name="pt-a" class="cls-12" d="M560.54,177.74v3.63h4.27v-3.63h-4.27Z"/>
          <path id="pt-a-10" data-name="pt-a" class="cls-12" d="M549.23,177.74v3.63h4.27v-3.63h-4.27Z"/>
          <path id="pt-b-9" data-name="pt-b" class="cls-12" d="M565.55,174.97h-1.28v1.07h-.96v-1.07h-1.28v1.07h-.96v-1.07h-1.28v2.13c0,.43.18.64.53.64h4.59c.3-.11.53-.34.64-.64v-2.13Z"/>
          <path id="pt-b-10" data-name="pt-b" class="cls-12" d="M554.24,174.97h-1.28v1.07h-.96v-1.07h-1.28v1.07h-.96v-1.07h-1.28v2.13c0,.43.18.64.53.64h4.59c.3-.11.53-.34.64-.64v-2.13Z"/>
          <path class="cls-1" d="M557.44,176.67c0-.64-.96-.64-.96,0v1.71h.96v-1.71Z"/>
          <path id="pt-c-9" data-name="pt-c" class="cls-1" d="M563.1,179.02c0-.64-.85-.64-.85,0v1.28h.85v-1.28Z"/>
          <path id="pt-c-10" data-name="pt-c" class="cls-1" d="M551.79,179.02c0-.64-.85-.64-.85,0v1.28h.85v-1.28Z"/>
        </g>
        <g id="pt-d-6" data-name="pt-d">
          <path class="cls-14" d="M561.39,240.78c-.11-5.87-4.27-7.25-4.27-7.25-.11,0-4.59,1.49-4.59,7.36l8.85-.11Z"/>
          <path class="cls-12" d="M565.02,233.63l.75,6.72h-4.48c0-5.55-4.27-6.4-4.27-6.4-.11,0-4.27,1.17-4.37,6.4h-4.48l.85-6.83,16,.11ZM566.08,240.46h-18.13c-.36,0-.57.25-.64.75,0,.57.21.85.64.85h18.13c.36,0,.57-.28.64-.85,0-.5-.25-.75-.75-.75h.11Z"/>
          <path class="cls-12" d="M559.47,240.35c0-3.52-2.45-4.48-2.45-4.48,0,0-2.45,1.07-2.45,4.48h4.91M565.66,230.75h-17.39c-.36.07-.57.36-.64.85,0,.36.21.57.64.64h17.39c.36,0,.57-.25.64-.75,0-.36-.21-.57-.64-.64v-.11ZM565.23,232.35h-16.43c-.36,0-.57.25-.64.75-.07.5.14.75.64.75h16.53c.43,0,.64-.25.64-.75,0-.5-.21-.75-.64-.75h-.11ZM559.9,221.05h-1.28v.85h-.96v-.85h-1.39v.96h-.96v-1.07h-1.28v2.13c0,.43.18.64.53.64h4.69c.36,0,.57-.18.64-.53v-2.13ZM554.99,223.93l-.32,6.83h4.59l-.32-6.93h-3.95"/>
          <path id="pt-a-11" data-name="pt-a" class="cls-12" d="M560.54,227.13v3.63h4.27v-3.63h-4.27Z"/>
          <path id="pt-a-12" data-name="pt-a" class="cls-12" d="M549.23,227.13v3.63h4.27v-3.63h-4.27Z"/>
          <path id="pt-b-11" data-name="pt-b" class="cls-12" d="M565.55,224.35h-1.28v1.07h-.96v-1.07h-1.28v1.07h-.96v-1.07h-1.28v2.13c0,.43.18.64.53.64h4.59c.3-.11.53-.34.64-.64v-2.13Z"/>
          <path id="pt-b-12" data-name="pt-b" class="cls-12" d="M554.24,224.35h-1.28v1.07h-.96v-1.07h-1.28v1.07h-.96v-1.07h-1.28v2.13c0,.43.18.64.53.64h4.59c.3-.11.53-.34.64-.64v-2.13Z"/>
          <path class="cls-1" d="M557.44,226.06c0-.64-.96-.64-.96,0v1.71h.96v-1.71Z"/>
          <path id="pt-c-11" data-name="pt-c" class="cls-1" d="M563.1,228.41c0-.64-.85-.64-.85,0v1.28h.85v-1.28Z"/>
          <path id="pt-c-12" data-name="pt-c" class="cls-1" d="M551.79,228.41c0-.64-.85-.64-.85,0v1.28h.85v-1.28Z"/>
        </g>
        <g id="pt-d-7" data-name="pt-d">
          <path class="cls-14" d="M542.14,292.25c4.09-4.21,2.14-8.14,2.14-8.14-.08-.08-4.29-2.2-8.45,1.93l6.31,6.21Z"/>
          <path class="cls-10" d="M549.76,289.79l-4.24,5.26-3.16-3.18c3.94-3.91,1.53-7.54,1.53-7.54-.08-.08-3.84-2.2-7.62,1.41l-3.16-3.18,5.45-4.2,11.2,11.43ZM545.67,295.36l-12.78-12.87c-.25-.25-.58-.23-.98.07-.4.4-.46.75-.15,1.06l12.78,12.87c.25.25.6.2,1.06-.15.35-.35.35-.7,0-1.06l.08.08Z"/>
          <path class="cls-10" d="M541.09,290.59c2.5-2.48,1.45-4.9,1.45-4.9,0,0-2.49-.99-4.91,1.42l3.46,3.48M552.26,288.21l-12.25-12.34c-.3-.2-.65-.15-1.06.15-.25.25-.25.55,0,.91l12.25,12.34c.25.25.58.23.98-.07.25-.25.25-.55,0-.91l.08-.08ZM550.82,289.04l-11.57-11.66c-.25-.25-.58-.23-.98.07-.4.3-.43.63-.08.98l11.65,11.73c.3.3.63.28.98-.07.35-.35.38-.68.08-.98l-.08-.08ZM555.09,277.29l-.9-.91-.61.6-.68-.68.61-.6-.98-.98-.68.68-.68-.68.76-.75-.9-.91-1.51,1.5c-.3.3-.33.58-.08.83l3.31,3.33c.25.25.53.28.83.08l1.51-1.5ZM549.59,275.84l-5.07,4.58,3.23,3.25,4.69-5.11-2.78-2.8"/>
          <path id="pt-a-13" data-name="pt-a" class="cls-10" d="M551.23,282.03l-2.57,2.56,3.01,3.03,2.57-2.56-3.01-3.03Z"/>
          <path id="pt-a-14" data-name="pt-a" class="cls-10" d="M543.26,274l-2.57,2.56,3.01,3.03,2.57-2.56-3.01-3.03Z"/>
          <path id="pt-b-13" data-name="pt-b" class="cls-10" d="M556.73,283.63l-.9-.91-.76.75-.68-.68.76-.75-.9-.91-.76.75-.68-.68.76-.75-.9-.91-1.51,1.5c-.3.3-.33.58-.08.83l3.23,3.25c.29.14.62.14.91,0l1.51-1.5Z"/>
          <path id="pt-b-14" data-name="pt-b" class="cls-10" d="M548.76,275.61l-.9-.91-.76.75-.68-.68.76-.75-.9-.91-.76.75-.68-.68.76-.75-.9-.91-1.51,1.5c-.3.3-.33.58-.08.83l3.23,3.25c.29.14.62.14.91,0l1.51-1.5Z"/>
          <path class="cls-1" d="M549.8,279.08c.45-.45-.22-1.13-.68-.68l-1.21,1.2.68.68,1.21-1.2Z"/>
          <path id="pt-c-13" data-name="pt-c" class="cls-1" d="M552.12,284.74c.45-.45-.15-1.06-.6-.61l-.91.9.6.61.91-.9Z"/>
          <path id="pt-c-14" data-name="pt-c" class="cls-1" d="M544.15,276.72c.45-.45-.15-1.06-.6-.61l-.91.9.6.61.91-.9Z"/>
        </g>
      </g>
      <g id="pt-f">
        <path class="cls-2" d="M500.59,242.59c-.05,2.26.79,4.44,2.35,6.08,1.42,1.63,3.49,2.57,5.65,2.56,2.28-.14,4.16-1,5.65-2.56,1.56-1.64,2.4-3.82,2.35-6.08v-11.52h-16v11.52Z"/>
        <circle class="cls-15" cx="504.32" cy="235.45" r="1.6"/>
        <circle class="cls-15" cx="513.17" cy="235.45" r="1.6"/>
        <circle class="cls-15" cx="508.69" cy="239.71" r="1.6"/>
        <circle class="cls-15" cx="504.32" cy="244.19" r="1.6"/>
        <circle class="cls-15" cx="513.17" cy="244.19" r="1.6"/>
      </g>
      <g id="pt-f-2" data-name="pt-f">
        <path class="cls-2" d="M500.59,214.86c-.05,2.26.79,4.44,2.35,6.08,1.42,1.63,3.49,2.57,5.65,2.56,2.28-.14,4.16-1,5.65-2.56,1.56-1.64,2.4-3.82,2.35-6.08v-11.52h-16v11.52Z"/>
        <circle class="cls-15" cx="504.32" cy="207.71" r="1.6"/>
        <circle class="cls-15" cx="513.17" cy="207.71" r="1.6"/>
        <circle class="cls-15" cx="508.69" cy="211.98" r="1.6"/>
        <circle class="cls-15" cx="504.32" cy="216.46" r="1.6"/>
        <circle class="cls-15" cx="513.17" cy="216.46" r="1.6"/>
      </g>
      <g id="pt-f-3" data-name="pt-f">
        <path class="cls-2" d="M478.4,242.59c-.05,2.26.79,4.44,2.35,6.08,1.42,1.63,3.49,2.57,5.65,2.56,2.28-.14,4.16-1,5.65-2.56,1.56-1.64,2.4-3.82,2.35-6.08v-11.52h-16v11.52Z"/>
        <circle class="cls-15" cx="482.13" cy="235.45" r="1.6"/>
        <circle class="cls-15" cx="490.99" cy="235.45" r="1.6"/>
        <circle class="cls-15" cx="486.51" cy="239.71" r="1.6"/>
        <circle class="cls-15" cx="482.13" cy="244.19" r="1.6"/>
        <circle class="cls-15" cx="490.99" cy="244.19" r="1.6"/>
      </g>
      <g id="pt-f-4" data-name="pt-f">
        <path class="cls-2" d="M522.77,242.59c-.05,2.26.79,4.44,2.35,6.08,1.42,1.63,3.49,2.57,5.65,2.56,2.28-.14,4.16-1,5.65-2.56,1.56-1.64,2.4-3.82,2.35-6.08v-11.52h-16v11.52Z"/>
        <circle class="cls-15" cx="526.51" cy="235.45" r="1.6"/>
        <circle class="cls-15" cx="535.36" cy="235.45" r="1.6"/>
        <circle class="cls-15" cx="530.88" cy="239.71" r="1.6"/>
        <circle class="cls-15" cx="526.51" cy="244.19" r="1.6"/>
        <circle class="cls-15" cx="535.36" cy="244.19" r="1.6"/>
      </g>
      <g id="pt-f-5" data-name="pt-f">
        <path class="cls-2" d="M500.59,270.11c-.05,2.26.79,4.44,2.35,6.08,1.42,1.63,3.49,2.57,5.65,2.56,2.28-.14,4.16-1,5.65-2.56,1.56-1.64,2.4-3.82,2.35-6.08v-11.52h-16v11.52Z"/>
        <circle class="cls-15" cx="504.32" cy="262.97" r="1.6"/>
        <circle class="cls-15" cx="513.17" cy="262.97" r="1.6"/>
        <circle class="cls-15" cx="508.69" cy="267.23" r="1.6"/>
        <circle class="cls-15" cx="504.32" cy="271.71" r="1.6"/>
        <circle class="cls-15" cx="513.17" cy="271.71" r="1.6"/>
      </g>
    </g>
  </g>
</svg>