<?xml version="1.0" encoding="UTF-8"?>
<svg id="Layer_1" xmlns="http://www.w3.org/2000/svg" viewBox="0 0 600 600">
  <defs>
    <style>
      .cls-1 {
        font-family: ArialRoundedMTBold, 'Arial Rounded MT Bold';
        font-size: 30px;
      }

      .cls-1, .cls-2 {
        fill: #fff;
      }

      .cls-3 {
        letter-spacing: -.06em;
      }

      .cls-4, .cls-2, .cls-5, .cls-6 {
        stroke: #000;
        stroke-miterlimit: 10;
        stroke-width: 2px;
      }

      .cls-7 {
        letter-spacing: -.05em;
      }

      .cls-8 {
        letter-spacing: -.05em;
      }

      .cls-9 {
        letter-spacing: -.06em;
      }

      .cls-5 {
        fill: #006e00;
      }

      .cls-10 {
        letter-spacing: -.08em;
      }

      .cls-6 {
        fill: #a1272d;
      }

      .cls-11 {
        letter-spacing: -.06em;
      }

      .cls-12 {
        letter-spacing: -.05em;
      }

      .cls-13 {
        letter-spacing: -.07em;
      }

      .cls-14 {
        letter-spacing: -.07em;
      }

      .cls-15 {
        letter-spacing: -.09em;
      }
    </style>
  </defs>
  <g>
    <path d="M300,599.5c-80,0-155.21-31.15-211.78-87.72C31.65,455.21.5,380,.5,300S31.65,144.79,88.22,88.22C144.79,31.65,220,.5,300,.5s155.21,31.15,211.78,87.72c56.57,56.57,87.72,131.78,87.72,211.78s-31.15,155.21-87.72,211.78c-56.57,56.57-131.78,87.72-211.78,87.72Z"/>
    <path d="M300,1c40.37,0,79.52,7.91,116.38,23.5,35.6,15.06,67.58,36.62,95.04,64.08,27.46,27.46,49.02,59.44,64.08,95.04,15.59,36.86,23.5,76.02,23.5,116.38s-7.91,79.52-23.5,116.38c-15.06,35.6-36.62,67.58-64.08,95.04-27.46,27.46-59.44,49.02-95.04,64.08-36.86,15.59-76.02,23.5-116.38,23.5s-79.52-7.91-116.38-23.5c-35.6-15.06-67.58-36.62-95.04-64.08-27.46-27.46-49.02-59.44-64.08-95.04C8.91,379.52,1,340.37,1,300s7.91-79.52,23.5-116.38c15.06-35.6,36.62-67.58,64.08-95.04,27.46-27.46,59.44-49.02,95.04-64.08C220.48,8.91,259.63,1,300,1M300,0C134.31,0,0,134.31,0,300s134.31,300,300,300,300-134.31,300-300S465.69,0,300,0h0Z"/>
  </g>
  <g>
    <text class="cls-1" transform="translate(282.17 28.92)"><tspan x="0" y="0">20</tspan></text>
    <text class="cls-1" transform="translate(379.8 40.14)"><tspan x="0" y="0">1</tspan></text>
    <text class="cls-1" transform="translate(446.29 81.8)"><tspan class="cls-3" x="0" y="0">1</tspan><tspan x="16.16" y="0">8</tspan></text>
    <text class="cls-1" transform="translate(518.96 144.8)"><tspan x="0" y="0">4</tspan></text>
    <text class="cls-1" transform="translate(550.07 222.8)"><tspan class="cls-14" x="0" y="0">1</tspan><tspan x="15.82" y="0">3</tspan></text>
    <text class="cls-1" transform="translate(572.93 308.8)"><tspan x="0" y="0">6</tspan></text>
    <text class="cls-1" transform="translate(550.96 397.8)"><tspan class="cls-12" x="0" y="0">1</tspan><tspan x="16.25" y="0">0</tspan></text>
    <text class="cls-1" transform="translate(509.58 477.8)"><tspan class="cls-9" x="0" y="0">1</tspan><tspan x="15.99" y="0">5</tspan></text>
    <text class="cls-1" transform="translate(461.1 537.13)"><tspan x="0" y="0">2</tspan></text>
    <text class="cls-1" transform="translate(370.03 577.8)"><tspan class="cls-15" x="0" y="0">1</tspan><tspan x="15.12" y="0">7</tspan></text>
    <text class="cls-1" transform="translate(291.85 593.61)"><tspan x="0" y="0">3</tspan></text>
    <text class="cls-1" transform="translate(196.01 577.8)"><tspan class="cls-7" x="0" y="0">1</tspan><tspan x="16.31" y="0">9</tspan></text>
    <text class="cls-1" transform="translate(126.83 541.33)"><tspan x="0" y="0">7</tspan></text>
    <text class="cls-1" transform="translate(54.59 477.8)"><tspan class="cls-8" x="0" y="0">1</tspan><tspan x="16.22" y="0">6</tspan></text>
    <text class="cls-1" transform="translate(23.14 397.8)"><tspan x="0" y="0">8</tspan></text>
    <text class="cls-1" transform="translate(2.56 309.8)"><tspan class="cls-10" x="0" y="0">1</tspan><tspan x="15.31" y="0">1</tspan></text>
    <text class="cls-1" transform="translate(13.57 222.8)"><tspan class="cls-11" x="0" y="0">1</tspan><tspan x="16.08" y="0">4</tspan></text>
    <text class="cls-1" transform="translate(63.06 144.8)"><tspan x="0" y="0">9</tspan></text>
    <text class="cls-1" transform="translate(114.51 81.8)"><tspan class="cls-13" x="0" y="0">1</tspan><tspan x="15.84" y="0">2</tspan></text>
    <text class="cls-1" transform="translate(200.78 40.68)"><tspan x="0" y="0">5</tspan></text>
  </g>
  <g>
    <g>
      <g>
        <path class="cls-6" d="M463.26,273.28l-1.1.18-24,3.93-.85.14c.34,2.32.62,4.66.85,7.02.5,5.07.75,10.23.75,15.45s-.25,10.38-.75,15.45c-.23,2.36-.51,4.7-.85,7.02l.85.14,24,3.93,1.1.18c1.26-8.71,1.9-17.63,1.9-26.72s-.64-18.01-1.9-26.72Z"/>
        <path class="cls-4" d="M437.31,277.53l-103.59,16.97-8.89,1.46-1.98.32c.21,1.21.31,2.45.31,3.72s-.1,2.51-.31,3.72l1.98.32,8.89,1.46,103.59,16.97c.34-2.32.62-4.66.85-7.02.5-5.07.75-10.23.75-15.45s-.25-10.38-.75-15.45c-.23-2.36-.51-4.7-.85-7.02Z"/>
        <path class="cls-4" d="M540.98,260.54l-77.72,12.74c1.26,8.71,1.9,17.63,1.9,26.72s-.64,18.01-1.9,26.72l77.72,12.74h0c.2-1.25.39-2.49.57-3.73.06-.37.11-.74.16-1.11.16-1.08.31-2.17.45-3.26v-.06c.17-1.27.32-2.55.46-3.83.12-1.04.23-2.09.33-3.14.05-.44.09-.89.13-1.33.1-1.02.19-2.03.27-3.05.08-.98.16-1.97.22-2.95.05-.67.09-1.33.13-2,.06-.83.1-1.65.14-2.48.03-.5.05-1.01.07-1.51.11-2.23.17-4.47.21-6.71.01-.23.01-.46.01-.7.02-1.2.03-2.4.03-3.6s-.01-2.4-.03-3.6c0-.24,0-.47-.01-.7-.04-2.24-.1-4.48-.21-6.71-.02-.5-.04-1.01-.07-1.51-.04-.83-.08-1.65-.14-2.48-.04-.67-.08-1.33-.13-2-.06-.98-.14-1.97-.22-2.95-.08-1.02-.17-2.03-.27-3.05-.04-.44-.08-.89-.13-1.33-.1-1.05-.21-2.1-.33-3.14-.14-1.28-.29-2.56-.46-3.83v-.06c-.14-1.09-.29-2.18-.45-3.26-.05-.37-.1-.74-.16-1.11-.18-1.24-.37-2.48-.57-3.72h0Z"/>
        <path class="cls-6" d="M561.7,257.15l-19.55,3.2-1.18.19h0c.2,1.25.39,2.49.57,3.73.06.37.11.74.16,1.11.16,1.09.31,2.17.45,3.26v.06c.17,1.27.32,2.55.46,3.83.12,1.04.23,2.09.33,3.14.05.44.09.89.13,1.33.1,1.02.19,2.03.27,3.05.08.98.16,1.97.22,2.95.05.67.09,1.33.13,2,.06.83.1,1.65.14,2.48.03.5.05,1.01.07,1.51.11,2.23.17,4.47.21,6.71.01.23.01.46.01.7.02,1.2.03,2.4.03,3.6s-.01,2.4-.03,3.6c0,.24,0,.47-.01.7-.04,2.24-.1,4.48-.21,6.71-.02.5-.04,1.01-.07,1.51-.04.83-.08,1.65-.14,2.48-.04.67-.08,1.33-.13,2-.06.98-.14,1.97-.22,2.95-.08,1.02-.17,2.03-.27,3.05-.04.44-.08.89-.13,1.33-.1,1.05-.21,2.1-.33,3.14-.14,1.28-.29,2.56-.46,3.83v.06c-.14,1.09-.29,2.17-.45,3.26-.05.37-.1.74-.16,1.11-.18,1.24-.37,2.48-.57,3.72h0s1.18.2,1.18.2l19.55,3.2c2.27-13.95,3.45-28.26,3.45-42.85s-1.18-28.9-3.45-42.85Z"/>
      </g>
      <g>
        <path class="cls-6" d="M136.74,273.28l1.1.18,24,3.93.85.14c-.34,2.32-.62,4.66-.85,7.02-.5,5.07-.75,10.23-.75,15.45s.25,10.38.75,15.45c.23,2.36.51,4.7.85,7.02l-.85.14-24,3.93-1.1.18c-1.26-8.71-1.9-17.63-1.9-26.72s.64-18.01,1.9-26.72Z"/>
        <path class="cls-4" d="M162.69,277.53l103.59,16.97,8.89,1.46,1.98.32c-.21,1.21-.31,2.45-.31,3.72s.1,2.51.31,3.72l-1.98.32-8.89,1.46-103.59,16.97c-.34-2.32-.62-4.66-.85-7.02-.5-5.07-.75-10.23-.75-15.45s.25-10.38.75-15.45c.23-2.36.51-4.7.85-7.02Z"/>
        <path class="cls-4" d="M59.02,260.54l77.72,12.74c-1.26,8.71-1.9,17.63-1.9,26.72s.64,18.01,1.9,26.72l-77.72,12.74h0c-.2-1.25-.39-2.49-.57-3.73-.06-.37-.11-.74-.16-1.11-.16-1.08-.31-2.17-.45-3.26v-.06c-.17-1.27-.32-2.55-.46-3.83-.12-1.04-.23-2.09-.33-3.14-.05-.44-.09-.89-.13-1.33-.1-1.02-.19-2.03-.27-3.05-.08-.98-.16-1.97-.22-2.95-.05-.67-.09-1.33-.13-2-.06-.83-.1-1.65-.14-2.48-.03-.5-.05-1.01-.07-1.51-.11-2.23-.17-4.47-.21-6.71-.01-.23-.01-.46-.01-.7-.02-1.2-.03-2.4-.03-3.6s.01-2.4.03-3.6c0-.24,0-.47.01-.7.04-2.24.1-4.48.21-6.71.02-.5.04-1.01.07-1.51.04-.83.08-1.65.14-2.48.04-.67.08-1.33.13-2,.06-.98.14-1.97.22-2.95.08-1.02.17-2.03.27-3.05.04-.44.08-.89.13-1.33.1-1.05.21-2.1.33-3.14.14-1.28.29-2.56.46-3.83v-.06c.14-1.09.29-2.18.45-3.26.05-.37.1-.74.16-1.11.18-1.24.37-2.48.57-3.72h0Z"/>
        <path class="cls-6" d="M38.3,257.15l19.55,3.2,1.18.19h0c-.2,1.25-.39,2.49-.57,3.73-.06.37-.11.74-.16,1.11-.16,1.09-.31,2.17-.45,3.26v.06c-.17,1.27-.32,2.55-.46,3.83-.12,1.04-.23,2.09-.33,3.14-.05.44-.09.89-.13,1.33-.1,1.02-.19,2.03-.27,3.05-.08.98-.16,1.97-.22,2.95-.05.67-.09,1.33-.13,2-.06.83-.1,1.65-.14,2.48-.03.5-.05,1.01-.07,1.51-.11,2.23-.17,4.47-.21,6.71-.01.23-.01.46-.01.7-.02,1.2-.03,2.4-.03,3.6s.01,2.4.03,3.6c0,.24,0,.47.01.7.04,2.24.1,4.48.21,6.71.02.5.04,1.01.07,1.51.04.83.08,1.65.14,2.48.04.67.08,1.33.13,2,.06.98.14,1.97.22,2.95.08,1.02.17,2.03.27,3.05.04.44.08.89.13,1.33.1,1.05.21,2.1.33,3.14.14,1.28.29,2.56.46,3.83v.06c.14,1.09.29,2.17.45,3.26.05.37.1.74.16,1.11.18,1.24.37,2.48.57,3.72h0s-1.18.2-1.18.2l-19.55,3.2c-2.27-13.95-3.45-28.26-3.45-42.85s1.18-28.9,3.45-42.85Z"/>
      </g>
    </g>
    <g>
      <g>
        <path class="cls-6" d="M375.86,447.01l-.51-.99-11.15-21.61-.4-.77c-2.1,1.04-4.24,2.03-6.41,2.98-4.67,2.04-9.5,3.87-14.46,5.49s-9.95,2.97-14.93,4.06c-2.32.51-4.63.97-6.94,1.36l.13.85,3.68,24.04.17,1.1c8.67-1.49,17.35-3.64,26-6.45,8.65-2.81,16.93-6.17,24.83-10.06Z"/>
        <path class="cls-4" d="M363.8,423.64l-48.15-93.28-4.14-8-.92-1.78c-1.09.57-2.23,1.05-3.44,1.44s-2.42.68-3.63.85l.31,1.98,1.36,8.91,15.87,103.76c2.31-.39,4.62-.85,6.94-1.36,4.98-1.09,9.96-2.45,14.93-4.06s9.79-3.45,14.46-5.49c2.17-.95,4.31-1.94,6.41-2.98Z"/>
        <path class="cls-4" d="M411.99,516.99l-36.13-69.98c-7.89,3.89-16.18,7.25-24.83,10.06-8.65,2.81-17.33,4.96-26,6.45l11.9,77.85h0c1.24-.2,2.48-.4,3.71-.61.37-.06.74-.12,1.11-.19,1.08-.18,2.16-.38,3.24-.58l.06-.02c1.26-.23,2.52-.48,3.78-.75,1.03-.21,2.06-.43,3.09-.66.43-.09.87-.19,1.31-.29,1-.22,1.99-.45,2.98-.69.96-.23,1.92-.46,2.87-.7.65-.16,1.29-.33,1.94-.49.81-.2,1.6-.41,2.4-.63.48-.13.98-.26,1.46-.4,2.15-.58,4.3-1.22,6.45-1.87.22-.06.44-.13.67-.21,1.15-.35,2.29-.71,3.43-1.08s2.28-.75,3.41-1.14c.23-.07.45-.15.66-.23,2.12-.73,4.23-1.48,6.32-2.27.47-.17.95-.35,1.41-.53.78-.29,1.54-.59,2.32-.9.62-.25,1.24-.49,1.86-.74.91-.36,1.83-.74,2.74-1.12.95-.39,1.88-.79,2.82-1.2.41-.17.82-.35,1.22-.53.97-.42,1.93-.85,2.88-1.28,1.17-.53,2.35-1.07,3.5-1.62l.06-.02c.99-.47,1.98-.95,2.96-1.44.34-.16.67-.32,1.01-.5,1.12-.55,2.24-1.12,3.36-1.69h0Z"/>
        <path class="cls-6" d="M421.62,535.65l-9.08-17.6-.55-1.06h0c-1.12.58-2.24,1.14-3.36,1.69-.33.17-.67.33-1.01.5-.99.49-1.97.97-2.96,1.44l-.06.02c-1.16.55-2.33,1.09-3.5,1.62-.95.44-1.92.86-2.88,1.28-.4.18-.82.36-1.22.53-.94.41-1.87.81-2.82,1.2-.91.38-1.82.76-2.74,1.12-.62.25-1.24.5-1.86.74-.77.31-1.54.6-2.32.9-.47.18-.95.36-1.41.53-2.09.79-4.2,1.54-6.32,2.27-.22.08-.43.15-.66.23-1.14.39-2.27.77-3.41,1.14s-2.29.73-3.43,1.08c-.23.07-.45.15-.67.21-2.14.65-4.29,1.29-6.45,1.87-.48.14-.97.27-1.46.4-.8.22-1.59.43-2.4.63-.65.17-1.29.33-1.94.49-.95.25-1.92.48-2.87.7-.99.24-1.98.47-2.98.69-.43.1-.87.2-1.31.29-1.03.23-2.06.45-3.09.66-1.26.26-2.52.52-3.78.75l-.06.02c-1.08.2-2.15.39-3.24.58-.37.07-.73.13-1.11.19-1.23.21-2.47.41-3.71.61h0s.18,1.18.18,1.18l3,19.58c13.97-2.15,27.94-5.45,41.82-9.96,13.88-4.51,27.12-10.05,39.69-16.52Z"/>
      </g>
      <g>
        <path class="cls-6" d="M274.96,136.48l.17,1.1,3.68,24.04.13.85c-2.31.39-4.62.85-6.94,1.36-4.98,1.09-9.96,2.45-14.93,4.06s-9.79,3.45-14.46,5.49c-2.17.95-4.31,1.94-6.41,2.98l-.4-.77-11.15-21.61-.51-.99c7.89-3.89,16.18-7.25,24.83-10.06,8.65-2.81,17.33-4.96,26-6.45Z"/>
        <path class="cls-4" d="M278.94,162.47l15.87,103.76,1.36,8.91.31,1.98c-1.22.17-2.43.46-3.63.85s-2.36.87-3.44,1.44l-.92-1.78-4.14-8-48.15-93.28c2.1-1.04,4.24-2.03,6.41-2.98,4.67-2.04,9.5-3.87,14.46-5.49s9.95-2.97,14.93-4.06c2.32-.51,4.63-.97,6.94-1.36Z"/>
        <path class="cls-4" d="M263.06,58.63l11.9,77.85c-8.67,1.49-17.35,3.64-26,6.45-8.65,2.81-16.93,6.17-24.83,10.06l-36.13-69.98h0c1.12-.58,2.24-1.14,3.36-1.69.33-.17.67-.33,1.01-.5.98-.49,1.97-.97,2.96-1.44l.06-.02c1.16-.55,2.33-1.09,3.5-1.62.95-.44,1.92-.86,2.88-1.28.4-.18.82-.36,1.22-.53.94-.41,1.87-.81,2.82-1.2.91-.38,1.82-.76,2.74-1.12.62-.25,1.24-.5,1.86-.74.77-.31,1.54-.6,2.32-.9.47-.18.95-.36,1.41-.53,2.09-.79,4.2-1.54,6.32-2.27.22-.08.43-.15.66-.23,1.14-.39,2.27-.77,3.41-1.14s2.29-.73,3.43-1.08c.23-.07.45-.15.67-.21,2.14-.65,4.29-1.29,6.45-1.87.48-.14.97-.27,1.46-.4.8-.22,1.59-.43,2.4-.63.65-.17,1.29-.33,1.94-.49.95-.25,1.92-.48,2.87-.7.99-.24,1.98-.47,2.98-.69.43-.1.87-.2,1.31-.29,1.03-.23,2.06-.45,3.09-.66,1.26-.26,2.52-.52,3.78-.75l.06-.02c1.08-.2,2.16-.4,3.24-.58.37-.07.73-.13,1.11-.19,1.23-.21,2.47-.41,3.71-.61h0Z"/>
        <path class="cls-6" d="M259.88,37.86l3,19.58.18,1.18h0c-1.24.2-2.48.4-3.71.61-.37.06-.74.12-1.11.19-1.09.18-2.16.38-3.24.58l-.06.02c-1.26.23-2.52.48-3.78.75-1.03.21-2.06.43-3.09.66-.43.09-.87.19-1.31.29-1,.22-1.99.45-2.98.69-.96.23-1.92.46-2.87.7-.65.16-1.29.33-1.94.49-.81.2-1.6.41-2.4.63-.48.13-.98.26-1.46.4-2.15.58-4.3,1.22-6.45,1.87-.22.06-.44.13-.67.21-1.15.35-2.29.71-3.43,1.08s-2.28.75-3.41,1.14c-.23.07-.45.15-.66.23-2.12.73-4.23,1.48-6.32,2.27-.47.17-.95.35-1.41.53-.78.29-1.54.59-2.32.9-.62.25-1.24.49-1.86.74-.91.36-1.83.74-2.74,1.12-.95.39-1.88.79-2.82,1.2-.41.17-.82.35-1.22.53-.97.42-1.93.85-2.88,1.28-1.17.53-2.35,1.07-3.5,1.62l-.06.02c-.99.47-1.97.95-2.96,1.44-.34.16-.67.32-1.01.5-1.12.55-2.24,1.12-3.36,1.69h0s-.55-1.06-.55-1.06l-9.08-17.6c12.57-6.47,25.81-12.01,39.69-16.52,13.88-4.51,27.85-7.81,41.82-9.96Z"/>
      </g>
    </g>
    <g>
      <g>
        <path class="cls-6" d="M447.78,374.34l-1-.5-21.73-10.93-.77-.39c-1.09,2.08-2.24,4.13-3.44,6.18-2.58,4.4-5.41,8.72-8.47,12.94s-6.3,8.25-9.69,12.06c-1.57,1.77-3.18,3.5-4.81,5.18l.61.61,17.11,17.29.78.79c6.14-6.31,11.9-13.15,17.24-20.5s10.07-14.95,14.17-22.73Z"/>
        <path class="cls-4" d="M424.29,362.53l-93.78-47.16-8.05-4.04-1.79-.9c-.54,1.1-1.19,2.16-1.94,3.19s-1.56,1.97-2.44,2.83l1.41,1.42,6.33,6.41,73.83,74.62c1.64-1.68,3.24-3.41,4.81-5.18,3.38-3.81,6.62-7.84,9.69-12.06s5.9-8.54,8.47-12.94c1.2-2.04,2.35-4.1,3.44-6.18Z"/>
        <path class="cls-4" d="M518.15,409.72l-70.37-35.38c-4.1,7.79-8.83,15.38-14.17,22.73s-11.1,14.19-17.24,20.5l55.39,55.99h0c.89-.89,1.77-1.79,2.65-2.68.27-.26.52-.53.78-.8.76-.78,1.53-1.57,2.28-2.37l.04-.05c.88-.93,1.76-1.87,2.62-2.83.71-.77,1.41-1.56,2.11-2.35.3-.33.6-.67.89-1,.68-.77,1.35-1.53,2.01-2.31.64-.75,1.29-1.5,1.91-2.26.43-.51.85-1.02,1.28-1.54.54-.64,1.05-1.28,1.57-1.92.32-.39.63-.79.94-1.18,1.4-1.74,2.76-3.52,4.11-5.31.14-.18.28-.37.42-.56.72-.96,1.43-1.92,2.14-2.89s1.4-1.95,2.09-2.93c.14-.19.28-.38.4-.57,1.28-1.84,2.55-3.68,3.77-5.55.28-.42.56-.84.83-1.26.46-.69.91-1.38,1.34-2.09.36-.57.72-1.12,1.07-1.69.53-.83,1.04-1.68,1.56-2.52.53-.87,1.06-1.74,1.57-2.63.23-.38.46-.77.68-1.15.54-.91,1.06-1.82,1.58-2.73.64-1.12,1.27-2.24,1.88-3.37l.04-.05c.53-.96,1.05-1.93,1.55-2.9.18-.33.35-.66.52-.99.58-1.11,1.16-2.22,1.73-3.34h0Z"/>
        <path class="cls-6" d="M536.91,419.16l-17.7-8.9-1.07-.54h0c-.57,1.13-1.14,2.24-1.73,3.35-.17.33-.35.66-.52.99-.51.98-1.02,1.94-1.55,2.9l-.04.05c-.61,1.13-1.24,2.25-1.88,3.37-.51.91-1.04,1.83-1.58,2.73-.22.39-.45.77-.68,1.15-.52.88-1.04,1.75-1.57,2.63-.51.84-1.03,1.69-1.56,2.52-.35.57-.71,1.13-1.07,1.69-.44.71-.89,1.39-1.34,2.09-.27.42-.55.85-.83,1.26-1.22,1.87-2.49,3.72-3.77,5.55-.13.19-.26.38-.4.57-.69.98-1.39,1.96-2.09,2.93s-1.42,1.94-2.14,2.89c-.14.19-.28.38-.42.56-1.35,1.79-2.71,3.57-4.11,5.31-.31.39-.63.79-.94,1.18-.52.65-1.03,1.29-1.57,1.92-.43.52-.85,1.03-1.28,1.54-.62.76-1.27,1.51-1.91,2.26-.66.78-1.33,1.54-2.01,2.31-.29.33-.59.67-.89,1-.7.79-1.4,1.58-2.11,2.35-.87.95-1.74,1.9-2.62,2.83l-.04.05c-.75.8-1.51,1.59-2.28,2.37-.26.27-.52.54-.78.8-.87.9-1.76,1.79-2.65,2.67h0s.84.86.84.86l13.94,14.08c10.04-9.95,19.4-20.83,27.98-32.64s16.03-24.07,22.4-36.69Z"/>
      </g>
      <g>
        <path class="cls-6" d="M183.63,182.42l.78.79,17.11,17.29.61.61c-1.64,1.68-3.24,3.41-4.81,5.18-3.38,3.81-6.62,7.84-9.69,12.06s-5.9,8.54-8.47,12.94c-1.2,2.04-2.35,4.1-3.44,6.18l-.77-.39-21.73-10.93-1-.5c4.1-7.79,8.83-15.38,14.17-22.73,5.34-7.35,11.1-14.19,17.24-20.5Z"/>
        <path class="cls-4" d="M202.13,201.12l73.83,74.62,6.33,6.41,1.41,1.42c-.88.86-1.69,1.8-2.44,2.83s-1.39,2.09-1.94,3.19l-1.79-.9-8.05-4.04-93.78-47.16c1.09-2.08,2.24-4.13,3.44-6.18,2.58-4.4,5.41-8.72,8.47-12.94s6.3-8.25,9.69-12.06c1.57-1.77,3.18-3.5,4.81-5.18Z"/>
        <path class="cls-4" d="M128.24,126.43l55.39,55.99c-6.14,6.31-11.9,13.15-17.24,20.5-5.34,7.35-10.07,14.95-14.17,22.73l-70.37-35.38h0c.57-1.13,1.14-2.24,1.73-3.35.17-.33.35-.66.52-.99.51-.97,1.02-1.94,1.55-2.9l.04-.05c.61-1.13,1.24-2.25,1.88-3.37.51-.91,1.04-1.83,1.58-2.73.22-.39.45-.77.68-1.15.52-.88,1.04-1.75,1.57-2.63.51-.84,1.03-1.69,1.56-2.52.35-.57.71-1.13,1.07-1.69.44-.71.89-1.39,1.34-2.09.27-.42.55-.85.83-1.26,1.22-1.87,2.49-3.72,3.77-5.55.13-.19.26-.38.4-.57.69-.98,1.39-1.96,2.09-2.93s1.42-1.94,2.14-2.89c.14-.19.28-.38.42-.56,1.35-1.79,2.71-3.57,4.11-5.31.31-.39.63-.79.94-1.18.52-.65,1.03-1.29,1.57-1.92.43-.52.85-1.03,1.28-1.54.62-.76,1.27-1.51,1.91-2.26.66-.78,1.33-1.54,2.01-2.31.29-.33.59-.67.89-1,.7-.79,1.4-1.58,2.11-2.35.87-.95,1.74-1.9,2.62-2.83l.04-.05c.75-.8,1.52-1.59,2.28-2.37.26-.27.52-.54.78-.8.87-.9,1.76-1.79,2.65-2.67h0Z"/>
        <path class="cls-6" d="M113.46,111.51l13.94,14.08.84.85h0c-.89.89-1.77,1.79-2.65,2.68-.27.26-.52.53-.78.8-.77.79-1.53,1.57-2.28,2.37l-.04.05c-.88.93-1.76,1.87-2.62,2.83-.71.77-1.41,1.56-2.11,2.35-.3.33-.6.67-.89,1-.68.77-1.35,1.53-2.01,2.31-.64.75-1.29,1.5-1.91,2.26-.43.51-.85,1.02-1.28,1.54-.54.64-1.05,1.28-1.57,1.92-.32.39-.63.79-.94,1.18-1.4,1.74-2.76,3.52-4.11,5.31-.14.18-.28.37-.42.56-.72.96-1.43,1.92-2.14,2.89s-1.4,1.95-2.09,2.93c-.14.19-.28.38-.4.57-1.28,1.84-2.55,3.68-3.77,5.55-.28.42-.56.84-.83,1.26-.46.69-.91,1.38-1.34,2.09-.36.57-.72,1.12-1.07,1.69-.53.83-1.04,1.68-1.56,2.52-.53.87-1.06,1.74-1.57,2.63-.23.38-.46.77-.68,1.15-.54.91-1.06,1.82-1.58,2.73-.64,1.12-1.27,2.24-1.88,3.37l-.04.05c-.53.96-1.04,1.93-1.55,2.9-.18.33-.35.66-.52.99-.58,1.11-1.16,2.22-1.73,3.34h0s-1.07-.53-1.07-.53l-17.7-8.9c6.36-12.62,13.82-24.89,22.4-36.69,8.58-11.8,17.94-22.69,27.98-32.64Z"/>
      </g>
    </g>
    <g>
      <g>
        <path class="cls-6" d="M416.37,182.42l-.78.79-17.11,17.29-.61.61c1.64,1.68,3.24,3.41,4.81,5.18,3.38,3.81,6.62,7.84,9.69,12.06,3.07,4.22,5.9,8.54,8.47,12.94,1.2,2.04,2.35,4.1,3.44,6.18l.77-.39,21.73-10.93,1-.5c-4.1-7.79-8.83-15.38-14.17-22.73-5.34-7.35-11.1-14.19-17.24-20.5Z"/>
        <path class="cls-4" d="M397.87,201.12l-73.83,74.62-6.33,6.41-1.41,1.42c.88.86,1.69,1.8,2.44,2.83s1.39,2.09,1.94,3.19l1.79-.9,8.05-4.04,93.78-47.16c-1.09-2.08-2.24-4.13-3.44-6.18-2.58-4.4-5.41-8.72-8.47-12.94-3.07-4.22-6.3-8.25-9.69-12.06-1.57-1.77-3.18-3.5-4.81-5.18Z"/>
        <path class="cls-4" d="M471.76,126.43l-55.39,55.99c6.14,6.31,11.9,13.15,17.24,20.5,5.34,7.35,10.07,14.95,14.17,22.73l70.37-35.38h0c-.57-1.13-1.14-2.24-1.73-3.35-.17-.33-.35-.66-.52-.99-.51-.97-1.02-1.94-1.55-2.9l-.04-.05c-.61-1.13-1.24-2.25-1.88-3.37-.51-.91-1.04-1.83-1.58-2.73-.22-.39-.45-.77-.68-1.15-.52-.88-1.04-1.75-1.57-2.63-.51-.84-1.03-1.69-1.56-2.52-.35-.57-.71-1.13-1.07-1.69-.44-.71-.89-1.39-1.34-2.09-.27-.42-.55-.85-.83-1.26-1.22-1.87-2.49-3.72-3.77-5.55-.13-.19-.26-.38-.4-.57-.69-.98-1.39-1.96-2.09-2.93s-1.42-1.94-2.14-2.89c-.14-.19-.28-.38-.42-.56-1.35-1.79-2.71-3.57-4.11-5.31-.31-.39-.63-.79-.94-1.18-.52-.65-1.03-1.29-1.57-1.92-.43-.52-.85-1.03-1.28-1.54-.62-.76-1.27-1.51-1.91-2.26-.66-.78-1.33-1.54-2.01-2.31-.29-.33-.59-.67-.89-1-.7-.79-1.4-1.58-2.11-2.35-.87-.95-1.74-1.9-2.62-2.83l-.04-.05c-.75-.8-1.52-1.59-2.28-2.37-.26-.27-.52-.54-.78-.8-.87-.9-1.76-1.79-2.65-2.67h0Z"/>
        <path class="cls-6" d="M486.54,111.51l-13.94,14.08-.84.85h0c.89.89,1.77,1.79,2.65,2.68.27.26.52.53.78.8.77.79,1.53,1.57,2.28,2.37l.04.05c.88.93,1.76,1.87,2.62,2.83.71.77,1.41,1.56,2.11,2.35.3.33.6.67.89,1,.68.77,1.35,1.53,2.01,2.31.64.75,1.29,1.5,1.91,2.26.43.51.85,1.02,1.28,1.54.54.64,1.05,1.28,1.57,1.92.32.39.63.79.94,1.18,1.4,1.74,2.76,3.52,4.11,5.31.14.18.28.37.42.56.72.96,1.43,1.92,2.14,2.89s1.4,1.95,2.09,2.93c.14.19.28.38.4.57,1.28,1.84,2.55,3.68,3.77,5.55.28.42.56.84.83,1.26.46.69.91,1.38,1.34,2.09.36.57.72,1.12,1.07,1.69.53.83,1.04,1.68,1.56,2.52.53.87,1.06,1.74,1.57,2.63.23.38.46.77.68,1.15.54.91,1.06,1.82,1.58,2.73.64,1.12,1.27,2.24,1.88,3.37l.04.05c.53.96,1.04,1.93,1.55,2.9.18.33.35.66.52.99.58,1.11,1.16,2.22,1.73,3.34h0s1.07-.53,1.07-.53l17.7-8.9c-6.36-12.62-13.82-24.89-22.4-36.69-8.58-11.8-17.94-22.69-27.98-32.64Z"/>
      </g>
      <g>
        <path class="cls-6" d="M152.22,374.34l1-.5,21.73-10.93.77-.39c1.09,2.08,2.24,4.13,3.44,6.18,2.58,4.4,5.41,8.72,8.47,12.94s6.3,8.25,9.69,12.06c1.57,1.77,3.18,3.5,4.81,5.18l-.61.61-17.11,17.29-.78.79c-6.14-6.31-11.9-13.15-17.24-20.5-5.34-7.35-10.07-14.95-14.17-22.73Z"/>
        <path class="cls-4" d="M175.71,362.53l93.78-47.16,8.05-4.04,1.79-.9c.54,1.1,1.19,2.16,1.94,3.19s1.56,1.97,2.44,2.83l-1.41,1.42-6.33,6.41-73.83,74.62c-1.64-1.68-3.24-3.41-4.81-5.18-3.38-3.81-6.62-7.84-9.69-12.06s-5.9-8.54-8.47-12.94c-1.2-2.04-2.35-4.1-3.44-6.18Z"/>
        <path class="cls-4" d="M81.85,409.72l70.37-35.38c4.1,7.79,8.83,15.38,14.17,22.73,5.34,7.35,11.1,14.19,17.24,20.5l-55.39,55.99h0c-.89-.89-1.77-1.79-2.65-2.68-.27-.26-.52-.53-.78-.8-.76-.78-1.53-1.57-2.28-2.37l-.04-.05c-.88-.93-1.76-1.87-2.62-2.83-.71-.77-1.41-1.56-2.11-2.35-.3-.33-.6-.67-.89-1-.68-.77-1.35-1.53-2.01-2.31-.64-.75-1.29-1.5-1.91-2.26-.43-.51-.85-1.02-1.28-1.54-.54-.64-1.05-1.28-1.57-1.92-.32-.39-.63-.79-.94-1.18-1.4-1.74-2.76-3.52-4.11-5.31-.14-.18-.28-.37-.42-.56-.72-.96-1.43-1.92-2.14-2.89s-1.4-1.95-2.09-2.93c-.14-.19-.28-.38-.4-.57-1.28-1.84-2.55-3.68-3.77-5.55-.28-.42-.56-.84-.83-1.26-.46-.69-.91-1.38-1.34-2.09-.36-.57-.72-1.12-1.07-1.69-.53-.83-1.04-1.68-1.56-2.52-.53-.87-1.06-1.74-1.57-2.63-.23-.38-.46-.77-.68-1.15-.54-.91-1.06-1.82-1.58-2.73-.64-1.12-1.27-2.24-1.88-3.37l-.04-.05c-.53-.96-1.05-1.93-1.55-2.9-.18-.33-.35-.66-.52-.99-.58-1.11-1.16-2.22-1.73-3.34h0Z"/>
        <path class="cls-6" d="M63.09,419.16l17.7-8.9,1.07-.54h0c.57,1.13,1.14,2.24,1.73,3.35.17.33.35.66.52.99.51.98,1.02,1.94,1.55,2.9l.04.05c.61,1.13,1.24,2.25,1.88,3.37.51.91,1.04,1.83,1.58,2.73.22.39.45.77.68,1.15.52.88,1.04,1.75,1.57,2.63.51.84,1.03,1.69,1.56,2.52.35.57.71,1.13,1.07,1.69.44.71.89,1.39,1.34,2.09.27.42.55.85.83,1.26,1.22,1.87,2.49,3.72,3.77,5.55.13.19.26.38.4.57.69.98,1.39,1.96,2.09,2.93s1.42,1.94,2.14,2.89c.14.19.28.38.42.56,1.35,1.79,2.71,3.57,4.11,5.31.31.39.63.79.94,1.18.52.65,1.03,1.29,1.57,1.92.43.52.85,1.03,1.28,1.54.62.76,1.27,1.51,1.91,2.26.66.78,1.33,1.54,2.01,2.31.29.33.59.67.89,1,.7.79,1.4,1.58,2.11,2.35.87.95,1.74,1.9,2.62,2.83l.04.05c.75.8,1.51,1.59,2.28,2.37.26.27.52.54.78.8.87.9,1.76,1.79,2.65,2.67h0s-.84.86-.84.86l-13.94,14.08c-10.04-9.95-19.4-20.83-27.98-32.64-8.58-11.8-16.03-24.07-22.4-36.69Z"/>
      </g>
    </g>
    <g>
      <g>
        <path class="cls-6" d="M325.04,136.48l-.17,1.1-3.68,24.04-.13.85c2.31.39,4.62.85,6.94,1.36,4.98,1.09,9.96,2.45,14.93,4.06,4.96,1.61,9.79,3.45,14.46,5.49,2.17.95,4.31,1.94,6.41,2.98l.4-.77,11.15-21.61.51-.99c-7.89-3.89-16.18-7.25-24.83-10.06-8.65-2.81-17.33-4.96-26-6.45Z"/>
        <path class="cls-4" d="M321.06,162.47l-15.87,103.76-1.36,8.91-.31,1.98c1.22.17,2.43.46,3.63.85s2.36.87,3.44,1.44l.92-1.78,4.14-8,48.15-93.28c-2.1-1.04-4.24-2.03-6.41-2.98-4.67-2.04-9.5-3.87-14.46-5.49-4.96-1.61-9.95-2.97-14.93-4.06-2.32-.51-4.63-.97-6.94-1.36Z"/>
        <path class="cls-4" d="M336.94,58.63l-11.9,77.85c8.67,1.49,17.35,3.64,26,6.45,8.65,2.81,16.93,6.17,24.83,10.06l36.13-69.98h0c-1.12-.58-2.24-1.14-3.36-1.69-.33-.17-.67-.33-1.01-.5-.98-.49-1.97-.97-2.96-1.44l-.06-.02c-1.16-.55-2.33-1.09-3.5-1.62-.95-.44-1.92-.86-2.88-1.28-.4-.18-.82-.36-1.22-.53-.94-.41-1.87-.81-2.82-1.2-.91-.38-1.82-.76-2.74-1.12-.62-.25-1.24-.5-1.86-.74-.77-.31-1.54-.6-2.32-.9-.47-.18-.95-.36-1.41-.53-2.09-.79-4.2-1.54-6.32-2.27-.22-.08-.43-.15-.66-.23-1.14-.39-2.27-.77-3.41-1.14s-2.29-.73-3.43-1.08c-.23-.07-.45-.15-.67-.21-2.14-.65-4.29-1.29-6.45-1.87-.48-.14-.97-.27-1.46-.4-.8-.22-1.59-.43-2.4-.63-.65-.17-1.29-.33-1.94-.49-.95-.25-1.92-.48-2.87-.7-.99-.24-1.98-.47-2.98-.69-.43-.1-.87-.2-1.31-.29-1.03-.23-2.06-.45-3.09-.66-1.26-.26-2.52-.52-3.78-.75l-.06-.02c-1.08-.2-2.16-.4-3.24-.58-.37-.07-.73-.13-1.11-.19-1.23-.21-2.47-.41-3.71-.61h0Z"/>
        <path class="cls-6" d="M340.12,37.86l-3,19.58-.18,1.18h0c1.24.2,2.48.4,3.71.61.37.06.74.12,1.11.19,1.09.18,2.16.38,3.24.58l.06.02c1.26.23,2.52.48,3.78.75,1.03.21,2.06.43,3.09.66.43.09.87.19,1.31.29,1,.22,1.99.45,2.98.69.96.23,1.92.46,2.87.7.65.16,1.29.33,1.94.49.81.2,1.6.41,2.4.63.48.13.98.26,1.46.4,2.15.58,4.3,1.22,6.45,1.87.22.06.44.13.67.21,1.15.35,2.29.71,3.43,1.08s2.28.75,3.41,1.14c.23.07.45.15.66.23,2.12.73,4.23,1.48,6.32,2.27.47.17.95.35,1.41.53.78.29,1.54.59,2.32.9.62.25,1.24.49,1.86.74.91.36,1.83.74,2.74,1.12.95.39,1.88.79,2.82,1.2.41.17.82.35,1.22.53.97.42,1.93.85,2.88,1.28,1.17.53,2.35,1.07,3.5,1.62l.06.02c.99.47,1.97.95,2.96,1.44.34.16.67.32,1.01.5,1.12.55,2.24,1.12,3.36,1.69h0s.55-1.06.55-1.06l9.08-17.6c-12.57-6.47-25.81-12.01-39.69-16.52-13.88-4.51-27.85-7.81-41.82-9.96Z"/>
      </g>
      <g>
        <path class="cls-6" d="M224.14,447.01l.51-.99,11.15-21.61.4-.77c2.1,1.04,4.24,2.03,6.41,2.98,4.67,2.04,9.5,3.87,14.46,5.49,4.96,1.61,9.95,2.97,14.93,4.06,2.32.51,4.63.97,6.94,1.36l-.13.85-3.68,24.04-.17,1.1c-8.67-1.49-17.35-3.64-26-6.45-8.65-2.81-16.93-6.17-24.83-10.06Z"/>
        <path class="cls-4" d="M236.2,423.64l48.15-93.28,4.14-8,.92-1.78c1.09.57,2.23,1.05,3.44,1.44s2.42.68,3.63.85l-.31,1.98-1.36,8.91-15.87,103.76c-2.31-.39-4.62-.85-6.94-1.36-4.98-1.09-9.96-2.45-14.93-4.06-4.96-1.61-9.79-3.45-14.46-5.49-2.17-.95-4.31-1.94-6.41-2.98Z"/>
        <path class="cls-4" d="M188.01,516.99l36.13-69.98c7.89,3.89,16.18,7.25,24.83,10.06,8.65,2.81,17.33,4.96,26,6.45l-11.9,77.85h0c-1.24-.2-2.48-.4-3.71-.61-.37-.06-.74-.12-1.11-.19-1.08-.18-2.16-.38-3.24-.58l-.06-.02c-1.26-.23-2.52-.48-3.78-.75-1.03-.21-2.06-.43-3.09-.66-.43-.09-.87-.19-1.31-.29-1-.22-1.99-.45-2.98-.69-.96-.23-1.92-.46-2.87-.7-.65-.16-1.29-.33-1.94-.49-.81-.2-1.6-.41-2.4-.63-.48-.13-.98-.26-1.46-.4-2.15-.58-4.3-1.22-6.45-1.87-.22-.06-.44-.13-.67-.21-1.15-.35-2.29-.71-3.43-1.08s-2.28-.75-3.41-1.14c-.23-.07-.45-.15-.66-.23-2.12-.73-4.23-1.48-6.32-2.27-.47-.17-.95-.35-1.41-.53-.78-.29-1.54-.59-2.32-.9-.62-.25-1.24-.49-1.86-.74-.91-.36-1.83-.74-2.74-1.12-.95-.39-1.88-.79-2.82-1.2-.41-.17-.82-.35-1.22-.53-.97-.42-1.93-.85-2.88-1.28-1.17-.53-2.35-1.07-3.5-1.62l-.06-.02c-.99-.47-1.98-.95-2.96-1.44-.34-.16-.67-.32-1.01-.5-1.12-.55-2.24-1.12-3.36-1.69h0Z"/>
        <path class="cls-6" d="M178.38,535.65l9.08-17.6.55-1.06h0c1.12.58,2.24,1.14,3.36,1.69.33.17.67.33,1.01.5.99.49,1.97.97,2.96,1.44l.06.02c1.16.55,2.33,1.09,3.5,1.62.95.44,1.92.86,2.88,1.28.4.18.82.36,1.22.53.94.41,1.87.81,2.82,1.2.91.38,1.82.76,2.74,1.12.62.25,1.24.5,1.86.74.77.31,1.54.6,2.32.9.47.18.95.36,1.41.53,2.09.79,4.2,1.54,6.32,2.27.22.08.43.15.66.23,1.14.39,2.27.77,3.41,1.14s2.29.73,3.43,1.08c.23.07.45.15.67.21,2.14.65,4.29,1.29,6.45,1.87.48.14.97.27,1.46.4.8.22,1.59.43,2.4.63.65.17,1.29.33,1.94.49.95.25,1.92.48,2.87.7.99.24,1.98.47,2.98.69.43.1.87.2,1.31.29,1.03.23,2.06.45,3.09.66,1.26.26,2.52.52,3.78.75l.06.02c1.08.2,2.15.39,3.24.58.37.07.73.13,1.11.19,1.23.21,2.47.41,3.71.61h0s-.18,1.18-.18,1.18l-3,19.58c-13.97-2.15-27.94-5.45-41.82-9.96-13.88-4.51-27.12-10.05-39.69-16.52Z"/>
      </g>
    </g>
  </g>
  <g>
    <g>
      <g>
        <path class="cls-5" d="M326.72,463.41l-.18-1.1-3.93-24-.14-.85c-2.32.34-4.66.62-7.02.85-5.07.5-10.23.75-15.45.75s-10.38-.25-15.45-.75c-2.36-.23-4.7-.51-7.02-.85l-.14.85-3.93,24-.18,1.1c8.71,1.26,17.63,1.9,26.72,1.9s18.01-.64,26.72-1.9Z"/>
        <path class="cls-2" d="M322.47,437.46l-16.97-103.59-1.46-8.89-.32-1.98c-1.21.21-2.45.31-3.72.31s-2.51-.1-3.72-.31l-.32,1.98-1.46,8.89-16.97,103.59c2.32.34,4.66.62,7.02.85,5.07.5,10.23.75,15.45.75s10.38-.25,15.45-.75c2.36-.23,4.7-.51,7.02-.85Z"/>
        <path class="cls-2" d="M339.46,541.13l-12.74-77.72c-8.71,1.26-17.63,1.9-26.72,1.9s-18.01-.64-26.72-1.9l-12.74,77.72h.01c1.24.2,2.48.39,3.72.57.37.06.74.11,1.11.16,1.08.16,2.17.31,3.26.45h.06c1.27.17,2.55.32,3.83.46,1.04.12,2.09.23,3.14.33.44.05.89.09,1.33.13,1.02.1,2.03.19,3.05.27.98.08,1.97.16,2.95.22.67.05,1.33.09,2,.13.83.06,1.65.1,2.48.14.5.03,1.01.05,1.51.07,2.23.11,4.47.17,6.71.21.23.01.46.01.7.01,1.2.02,2.4.03,3.6.03s2.4-.01,3.6-.03c.24,0,.47,0,.7-.01,2.24-.04,4.48-.1,6.71-.21.5-.02,1.01-.04,1.51-.07.83-.04,1.65-.08,2.48-.14.67-.04,1.33-.08,2-.13.98-.06,1.97-.14,2.95-.22,1.02-.08,2.03-.17,3.05-.27.44-.04.89-.08,1.33-.13,1.05-.1,2.1-.21,3.14-.33,1.28-.14,2.56-.29,3.83-.46h.06c1.09-.14,2.18-.29,3.26-.45.37-.05.74-.1,1.11-.16,1.24-.18,2.48-.37,3.72-.57h.01Z"/>
        <path class="cls-5" d="M342.85,561.86l-3.2-19.55-.19-1.18h-.01c-1.24.2-2.48.39-3.72.57-.37.06-.74.11-1.11.16-1.09.16-2.17.31-3.26.45h-.06c-1.27.17-2.55.32-3.83.46-1.04.12-2.09.23-3.14.33-.44.05-.89.09-1.33.13-1.02.1-2.03.19-3.05.27-.98.08-1.97.16-2.95.22-.67.05-1.33.09-2,.13-.83.06-1.65.1-2.48.14-.5.03-1.01.05-1.51.07-2.23.11-4.47.17-6.71.21-.23.01-.46.01-.7.01-1.2.02-2.4.03-3.6.03s-2.4-.01-3.6-.03c-.24,0-.47,0-.7-.01-2.24-.04-4.48-.1-6.71-.21-.5-.02-1.01-.04-1.51-.07-.83-.04-1.65-.08-2.48-.14-.67-.04-1.33-.08-2-.13-.98-.06-1.97-.14-2.95-.22-1.02-.08-2.03-.17-3.05-.27-.44-.04-.89-.08-1.33-.13-1.05-.1-2.1-.21-3.14-.33-1.28-.14-2.56-.29-3.83-.46h-.06c-1.09-.14-2.17-.29-3.26-.45-.37-.05-.74-.1-1.11-.16-1.24-.18-2.48-.37-3.72-.57h-.01l-.19,1.18-3.2,19.55c13.95,2.27,28.26,3.45,42.85,3.45s28.9-1.18,42.85-3.45Z"/>
      </g>
      <g>
        <path class="cls-5" d="M326.72,136.9l-.18,1.1-3.93,24-.14.85c-2.32-.34-4.66-.62-7.02-.85-5.07-.5-10.23-.75-15.45-.75s-10.38.25-15.45.75c-2.36.23-4.7.51-7.02.85l-.14-.85-3.93-24-.18-1.1c8.71-1.26,17.63-1.9,26.72-1.9s18.01.64,26.72,1.9Z"/>
        <path class="cls-2" d="M322.47,162.85l-16.97,103.59-1.46,8.89-.32,1.98c-1.21-.21-2.45-.31-3.72-.31s-2.51.1-3.72.31l-.32-1.98-1.46-8.89-16.97-103.59c2.32-.34,4.66-.62,7.02-.85,5.07-.5,10.23-.75,15.45-.75s10.38.25,15.45.75c2.36.23,4.7.51,7.02.85Z"/>
        <path class="cls-2" d="M339.46,59.18l-12.74,77.72c-8.71-1.26-17.63-1.9-26.72-1.9s-18.01.64-26.72,1.9l-12.74-77.72h.01c1.24-.2,2.48-.39,3.72-.57.37-.06.74-.11,1.11-.16,1.08-.16,2.17-.31,3.26-.45h.06c1.27-.17,2.55-.32,3.83-.46,1.04-.12,2.09-.23,3.14-.33.44-.05.89-.09,1.33-.13,1.02-.1,2.03-.19,3.05-.27.98-.08,1.97-.16,2.95-.22.67-.05,1.33-.09,2-.13.83-.06,1.65-.1,2.48-.14.5-.03,1.01-.05,1.51-.07,2.23-.11,4.47-.17,6.71-.21.23-.01.46-.01.7-.01,1.2-.02,2.4-.03,3.6-.03s2.4.01,3.6.03c.24,0,.47,0,.7.01,2.24.04,4.48.1,6.71.21.5.02,1.01.04,1.51.07.83.04,1.65.08,2.48.14.67.04,1.33.08,2,.13.98.06,1.97.14,2.95.22,1.02.08,2.03.17,3.05.27.44.04.89.08,1.33.13,1.05.1,2.1.21,3.14.33,1.28.14,2.56.29,3.83.46h.06c1.09.14,2.18.29,3.26.45.37.05.74.1,1.11.16,1.24.18,2.48.37,3.72.57h.01Z"/>
        <path class="cls-5" d="M342.85,38.45l-3.2,19.55-.19,1.18h-.01c-1.24-.2-2.48-.39-3.72-.57-.37-.06-.74-.11-1.11-.16-1.09-.16-2.17-.31-3.26-.45h-.06c-1.27-.17-2.55-.32-3.83-.46-1.04-.12-2.09-.23-3.14-.33-.44-.05-.89-.09-1.33-.13-1.02-.1-2.03-.19-3.05-.27-.98-.08-1.97-.16-2.95-.22-.67-.05-1.33-.09-2-.13-.83-.06-1.65-.1-2.48-.14-.5-.03-1.01-.05-1.51-.07-2.23-.11-4.47-.17-6.71-.21-.23-.01-.46-.01-.7-.01-1.2-.02-2.4-.03-3.6-.03s-2.4.01-3.6.03c-.24,0-.47,0-.7.01-2.24.04-4.48.1-6.71.21-.5.02-1.01.04-1.51.07-.83.04-1.65.08-2.48.14-.67.04-1.33.08-2,.13-.98.06-1.97.14-2.95.22-1.02.08-2.03.17-3.05.27-.44.04-.89.08-1.33.13-1.05.1-2.1.21-3.14.33-1.28.14-2.56.29-3.83.46h-.06c-1.09.14-2.17.29-3.26.45-.37.05-.74.1-1.11.16-1.24.18-2.48.37-3.72.57h-.01l-.19-1.18-3.2-19.55c13.95-2.27,28.26-3.45,42.85-3.45s28.9,1.18,42.85,3.45Z"/>
      </g>
    </g>
    <g>
      <g>
        <path class="cls-5" d="M417.58,416.37l-.79-.78-17.29-17.11-.61-.61c-1.68,1.64-3.41,3.24-5.18,4.81-3.81,3.38-7.84,6.62-12.06,9.69-4.22,3.07-8.54,5.9-12.94,8.47-2.04,1.2-4.1,2.35-6.18,3.44l.39.77,10.93,21.73.5,1c7.79-4.1,15.38-8.83,22.73-14.17s14.19-11.1,20.5-17.24Z"/>
        <path class="cls-2" d="M398.88,397.87l-74.62-73.83-6.41-6.33-1.42-1.41c-.86.88-1.8,1.69-2.83,2.44s-2.09,1.39-3.19,1.94l.9,1.79,4.04,8.05,47.16,93.78c2.08-1.09,4.13-2.24,6.18-3.44,4.4-2.58,8.72-5.41,12.94-8.47,4.22-3.07,8.25-6.3,12.06-9.69,1.77-1.57,3.5-3.18,5.18-4.81Z"/>
        <path class="cls-2" d="M473.57,471.76l-55.99-55.39c-6.31,6.14-13.15,11.9-20.5,17.24s-14.95,10.07-22.73,14.17l35.38,70.37h0c1.12-.57,2.24-1.15,3.34-1.73.33-.17.66-.35.99-.52.97-.51,1.94-1.02,2.9-1.55l.05-.04c1.13-.61,2.25-1.24,3.37-1.88.91-.51,1.83-1.04,2.73-1.58.39-.22.77-.45,1.15-.68.88-.52,1.75-1.04,2.63-1.57.84-.51,1.69-1.03,2.52-1.56.57-.35,1.13-.71,1.69-1.07.71-.44,1.39-.89,2.09-1.34.42-.27.85-.55,1.26-.83,1.87-1.22,3.72-2.49,5.55-3.77.19-.13.38-.26.57-.4.98-.69,1.96-1.39,2.93-2.09s1.94-1.42,2.89-2.14c.19-.14.38-.28.56-.42,1.79-1.35,3.57-2.71,5.31-4.11.39-.31.79-.63,1.18-.94.65-.52,1.29-1.03,1.92-1.57.52-.43,1.03-.85,1.54-1.28.76-.62,1.51-1.27,2.26-1.91.78-.66,1.54-1.33,2.31-2.01.33-.29.67-.59,1-.89.79-.7,1.58-1.4,2.35-2.11.95-.87,1.9-1.74,2.83-2.62l.05-.04c.8-.75,1.59-1.52,2.37-2.28.27-.26.54-.52.8-.78.9-.87,1.79-1.76,2.67-2.65h0Z"/>
        <path class="cls-5" d="M488.49,486.54l-14.08-13.94-.85-.84h0c-.89.9-1.78,1.78-2.67,2.65-.26.27-.53.52-.8.78-.79.77-1.57,1.53-2.37,2.28l-.05.04c-.93.88-1.87,1.76-2.83,2.62-.77.71-1.56,1.41-2.35,2.11-.33.3-.67.6-1,.89-.77.68-1.53,1.35-2.31,2.01-.75.64-1.5,1.29-2.26,1.91-.51.43-1.02.85-1.54,1.28-.64.54-1.28,1.05-1.92,1.57-.39.32-.79.63-1.18.94-1.74,1.4-3.52,2.76-5.31,4.11-.18.14-.37.28-.56.42-.96.72-1.92,1.43-2.89,2.14s-1.95,1.4-2.93,2.09c-.19.14-.38.28-.57.4-1.84,1.28-3.68,2.55-5.55,3.77-.42.28-.84.56-1.26.83-.69.46-1.38.91-2.09,1.34-.57.36-1.12.72-1.69,1.07-.83.53-1.68,1.04-2.52,1.56-.87.53-1.74,1.06-2.63,1.57-.38.23-.77.46-1.15.68-.91.54-1.82,1.06-2.73,1.58-1.12.64-2.24,1.27-3.37,1.88l-.05.04c-.96.53-1.93,1.04-2.9,1.55-.33.18-.66.35-.99.52-1.11.58-2.22,1.16-3.34,1.73h0s.54,1.07.54,1.07l8.9,17.7c12.62-6.36,24.89-13.82,36.69-22.4s22.69-17.94,32.64-27.98Z"/>
      </g>
      <g>
        <path class="cls-5" d="M225.66,152.22l.5,1,10.93,21.73.39.77c-2.08,1.09-4.13,2.24-6.18,3.44-4.4,2.58-8.72,5.41-12.94,8.47s-8.25,6.3-12.06,9.69c-1.77,1.57-3.5,3.18-5.18,4.81l-.61-.61-17.29-17.11-.79-.78c6.31-6.14,13.15-11.9,20.5-17.24,7.35-5.34,14.95-10.07,22.73-14.17Z"/>
        <path class="cls-2" d="M237.47,175.71l47.16,93.78,4.04,8.05.9,1.79c-1.1.54-2.16,1.19-3.19,1.94s-1.97,1.56-2.83,2.44l-1.42-1.41-6.41-6.33-74.62-73.83c1.68-1.64,3.41-3.24,5.18-4.81,3.81-3.38,7.84-6.62,12.06-9.69s8.54-5.9,12.94-8.47c2.04-1.2,4.1-2.35,6.18-3.44Z"/>
        <path class="cls-2" d="M190.28,81.85l35.38,70.37c-7.79,4.1-15.38,8.83-22.73,14.17-7.35,5.34-14.19,11.1-20.5,17.24l-55.99-55.39h0c.89-.9,1.78-1.78,2.67-2.65.26-.27.53-.52.8-.78.78-.76,1.57-1.53,2.37-2.28l.05-.04c.93-.88,1.87-1.76,2.83-2.62.77-.71,1.56-1.41,2.35-2.11.33-.3.67-.6,1-.89.77-.68,1.53-1.35,2.31-2.01.75-.64,1.5-1.29,2.26-1.91.51-.43,1.02-.85,1.54-1.28.64-.54,1.28-1.05,1.92-1.57.39-.32.79-.63,1.18-.94,1.74-1.4,3.52-2.76,5.31-4.11.18-.14.37-.28.56-.42.96-.72,1.92-1.43,2.89-2.14s1.95-1.4,2.93-2.09c.19-.14.38-.28.57-.4,1.84-1.28,3.68-2.55,5.55-3.77.42-.28.84-.56,1.26-.83.69-.46,1.38-.91,2.09-1.34.57-.36,1.12-.72,1.69-1.07.83-.53,1.68-1.04,2.52-1.56.87-.53,1.74-1.06,2.63-1.57.38-.23.77-.46,1.15-.68.91-.54,1.82-1.06,2.73-1.58,1.12-.64,2.24-1.27,3.37-1.88l.05-.04c.96-.53,1.93-1.05,2.9-1.55.33-.18.66-.35.99-.52,1.11-.58,2.22-1.16,3.34-1.73h0Z"/>
        <path class="cls-5" d="M180.84,63.09l8.9,17.7.54,1.07h0c-1.12.57-2.24,1.15-3.34,1.73-.33.17-.66.35-.99.52-.98.51-1.94,1.02-2.9,1.55l-.05.04c-1.13.61-2.25,1.24-3.37,1.88-.91.51-1.83,1.04-2.73,1.58-.39.22-.77.45-1.15.68-.88.52-1.75,1.04-2.63,1.57-.84.51-1.69,1.03-2.52,1.56-.57.35-1.13.71-1.69,1.07-.71.44-1.39.89-2.09,1.34-.42.27-.85.55-1.26.83-1.87,1.22-3.72,2.49-5.55,3.77-.19.13-.38.26-.57.4-.98.69-1.96,1.39-2.93,2.09s-1.94,1.42-2.89,2.14c-.19.14-.38.28-.56.42-1.79,1.35-3.57,2.71-5.31,4.11-.39.31-.79.63-1.18.94-.65.52-1.29,1.03-1.92,1.57-.52.43-1.03.85-1.54,1.28-.76.62-1.51,1.27-2.26,1.91-.78.66-1.54,1.33-2.31,2.01-.33.29-.67.59-1,.89-.79.7-1.58,1.4-2.35,2.11-.95.87-1.9,1.74-2.83,2.62l-.05.04c-.8.75-1.59,1.51-2.37,2.28-.27.26-.54.52-.8.78-.9.87-1.79,1.76-2.67,2.65h0s-.85-.84-.85-.84l-14.08-13.94c9.95-10.04,20.83-19.4,32.64-27.98,11.8-8.58,24.07-16.03,36.69-22.4Z"/>
      </g>
    </g>
    <g>
      <g>
        <path class="cls-5" d="M463.52,325.04l-1.1-.17-24.04-3.68-.85-.13c-.39,2.31-.85,4.62-1.36,6.94-1.09,4.98-2.45,9.96-4.06,14.93s-3.45,9.79-5.49,14.46c-.95,2.17-1.94,4.31-2.98,6.41l.77.4,21.61,11.15.99.51c3.89-7.89,7.25-16.18,10.06-24.83s4.96-17.33,6.45-26Z"/>
        <path class="cls-2" d="M437.53,321.06l-103.76-15.87-8.91-1.36-1.98-.31c-.17,1.22-.46,2.43-.85,3.63s-.87,2.36-1.44,3.44l1.78.92,8,4.14,93.28,48.15c1.04-2.1,2.03-4.24,2.98-6.41,2.04-4.67,3.87-9.5,5.49-14.46s2.97-9.95,4.06-14.93c.51-2.32.97-4.63,1.36-6.94Z"/>
        <path class="cls-2" d="M541.37,336.94l-77.85-11.9c-1.49,8.67-3.64,17.35-6.45,26s-6.17,16.93-10.06,24.83l69.98,36.13h0c.57-1.13,1.14-2.25,1.69-3.37.17-.33.33-.67.5-1.01.49-.98.97-1.97,1.44-2.96l.02-.06c.55-1.16,1.09-2.33,1.62-3.5.44-.95.86-1.92,1.28-2.88.18-.4.36-.82.53-1.22.41-.94.81-1.87,1.2-2.82.38-.91.76-1.82,1.12-2.74.25-.62.5-1.24.74-1.86.31-.77.6-1.54.9-2.32.18-.47.36-.95.53-1.41.79-2.09,1.54-4.2,2.27-6.32.08-.22.15-.43.23-.66.39-1.14.77-2.27,1.14-3.41s.73-2.29,1.08-3.43c.07-.23.15-.45.21-.67.65-2.14,1.29-4.29,1.87-6.45.14-.48.27-.97.4-1.46.22-.8.43-1.59.63-2.4.17-.65.33-1.29.49-1.94.25-.95.48-1.92.7-2.87.24-.99.47-1.98.69-2.98.1-.43.2-.87.29-1.31.23-1.03.45-2.06.66-3.09.26-1.26.52-2.52.75-3.78l.02-.06c.2-1.08.4-2.16.58-3.24.07-.37.13-.73.19-1.11.21-1.23.41-2.47.61-3.71h0Z"/>
        <path class="cls-5" d="M562.14,340.12l-19.58-3-1.18-.18h0c-.19,1.25-.4,2.49-.61,3.72-.06.37-.12.74-.19,1.11-.18,1.09-.38,2.16-.58,3.24l-.02.06c-.23,1.26-.48,2.52-.75,3.78-.21,1.03-.43,2.06-.66,3.09-.09.43-.19.87-.29,1.31-.22,1-.45,1.99-.69,2.98-.23.96-.46,1.92-.7,2.87-.16.65-.33,1.29-.49,1.94-.2.81-.41,1.6-.63,2.4-.13.48-.26.98-.4,1.46-.58,2.15-1.22,4.3-1.87,6.45-.06.22-.13.44-.21.67-.35,1.15-.71,2.29-1.08,3.43s-.75,2.28-1.14,3.41c-.07.23-.15.45-.23.66-.73,2.12-1.48,4.23-2.27,6.32-.17.47-.35.95-.53,1.41-.29.78-.59,1.54-.9,2.32-.25.62-.49,1.24-.74,1.86-.36.91-.74,1.83-1.12,2.74-.39.95-.79,1.88-1.2,2.82-.17.41-.35.82-.53,1.22-.42.97-.85,1.93-1.28,2.88-.53,1.17-1.07,2.35-1.62,3.5l-.02.06c-.47.99-.95,1.97-1.44,2.96-.16.34-.32.67-.5,1.01-.55,1.12-1.12,2.24-1.69,3.36h0s1.06.55,1.06.55l17.6,9.08c6.47-12.57,12.01-25.81,16.52-39.69,4.51-13.88,7.81-27.85,9.96-41.82Z"/>
      </g>
      <g>
        <path class="cls-5" d="M152.99,224.14l.99.51,21.61,11.15.77.4c-1.04,2.1-2.03,4.24-2.98,6.41-2.04,4.67-3.87,9.5-5.49,14.46s-2.97,9.95-4.06,14.93c-.51,2.32-.97,4.63-1.36,6.94l-.85-.13-24.04-3.68-1.1-.17c1.49-8.67,3.64-17.35,6.45-26,2.81-8.65,6.17-16.93,10.06-24.83Z"/>
        <path class="cls-2" d="M176.36,236.2l93.28,48.15,8,4.14,1.78.92c-.57,1.09-1.05,2.23-1.44,3.44s-.68,2.42-.85,3.63l-1.98-.31-8.91-1.36-103.76-15.87c.39-2.31.85-4.62,1.36-6.94,1.09-4.98,2.45-9.96,4.06-14.93s3.45-9.79,5.49-14.46c.95-2.17,1.94-4.31,2.98-6.41Z"/>
        <path class="cls-2" d="M83.01,188.01l69.98,36.13c-3.89,7.89-7.25,16.18-10.06,24.83-2.81,8.65-4.96,17.33-6.45,26l-77.85-11.9h0c.19-1.25.4-2.49.61-3.72.06-.37.12-.74.19-1.11.18-1.08.38-2.16.58-3.24l.02-.06c.23-1.26.48-2.52.75-3.78.21-1.03.43-2.06.66-3.09.09-.43.19-.87.29-1.31.22-1,.45-1.99.69-2.98.23-.96.46-1.92.7-2.87.16-.65.33-1.29.49-1.94.2-.81.41-1.6.63-2.4.13-.48.26-.98.4-1.46.58-2.15,1.22-4.3,1.87-6.45.06-.22.13-.44.21-.67.35-1.15.71-2.29,1.08-3.43s.75-2.28,1.14-3.41c.07-.23.15-.45.23-.66.73-2.12,1.48-4.23,2.27-6.32.17-.47.35-.95.53-1.41.29-.78.59-1.54.9-2.32.25-.62.49-1.24.74-1.86.36-.91.74-1.83,1.12-2.74.39-.95.79-1.88,1.2-2.82.17-.41.35-.82.53-1.22.42-.97.85-1.93,1.28-2.88.53-1.17,1.07-2.35,1.62-3.5l.02-.06c.47-.99.95-1.98,1.44-2.96.16-.34.32-.67.5-1.01.55-1.12,1.12-2.24,1.69-3.36h0Z"/>
        <path class="cls-5" d="M64.35,178.38l17.6,9.08,1.06.55h0c-.57,1.13-1.14,2.25-1.69,3.37-.17.33-.33.67-.5,1.01-.49.99-.97,1.97-1.44,2.96l-.02.06c-.55,1.16-1.09,2.33-1.62,3.5-.44.95-.86,1.92-1.28,2.88-.18.4-.36.82-.53,1.22-.41.94-.81,1.87-1.2,2.82-.38.91-.76,1.82-1.12,2.74-.25.62-.5,1.24-.74,1.86-.31.77-.6,1.54-.9,2.32-.18.47-.36.95-.53,1.41-.79,2.09-1.54,4.2-2.27,6.32-.08.22-.15.43-.23.66-.39,1.14-.77,2.27-1.14,3.41s-.73,2.29-1.08,3.43c-.07.23-.15.45-.21.67-.65,2.14-1.29,4.29-1.87,6.45-.14.48-.27.97-.4,1.46-.22.8-.43,1.59-.63,2.4-.17.65-.33,1.29-.49,1.94-.25.95-.48,1.92-.7,2.87-.24.99-.47,1.98-.69,2.98-.1.43-.2.87-.29,1.31-.23,1.03-.45,2.06-.66,3.09-.26,1.26-.52,2.52-.75,3.78l-.02.06c-.2,1.08-.39,2.15-.58,3.24-.07.37-.13.73-.19,1.11-.21,1.23-.41,2.47-.61,3.71h0s-1.18-.17-1.18-.17l-19.58-3c2.15-13.97,5.45-27.94,9.96-41.82,4.51-13.88,10.05-27.12,16.52-39.69Z"/>
      </g>
    </g>
    <g>
      <g>
        <path class="cls-5" d="M447.01,224.14l-.99.51-21.61,11.15-.77.4c1.04,2.1,2.03,4.24,2.98,6.41,2.04,4.67,3.87,9.5,5.49,14.46s2.97,9.95,4.06,14.93c.51,2.32.97,4.63,1.36,6.94l.85-.13,24.04-3.68,1.1-.17c-1.49-8.67-3.64-17.35-6.45-26-2.81-8.65-6.17-16.93-10.06-24.83Z"/>
        <path class="cls-2" d="M423.64,236.2l-93.28,48.15-8,4.14-1.78.92c.57,1.09,1.05,2.23,1.44,3.44s.68,2.42.85,3.63l1.98-.31,8.91-1.36,103.76-15.87c-.39-2.31-.85-4.62-1.36-6.94-1.09-4.98-2.45-9.96-4.06-14.93s-3.45-9.79-5.49-14.46c-.95-2.17-1.94-4.31-2.98-6.41Z"/>
        <path class="cls-2" d="M516.99,188.01l-69.98,36.13c3.89,7.89,7.25,16.18,10.06,24.83,2.81,8.65,4.96,17.33,6.45,26l77.85-11.9h0c-.19-1.25-.4-2.49-.61-3.72-.06-.37-.12-.74-.19-1.11-.18-1.08-.38-2.16-.58-3.24l-.02-.06c-.23-1.26-.48-2.52-.75-3.78-.21-1.03-.43-2.06-.66-3.09-.09-.43-.19-.87-.29-1.31-.22-1-.45-1.99-.69-2.98-.23-.96-.46-1.92-.7-2.87-.16-.65-.33-1.29-.49-1.94-.2-.81-.41-1.6-.63-2.4-.13-.48-.26-.98-.4-1.46-.58-2.15-1.22-4.3-1.87-6.45-.06-.22-.13-.44-.21-.67-.35-1.15-.71-2.29-1.08-3.43s-.75-2.28-1.14-3.41c-.07-.23-.15-.45-.23-.66-.73-2.12-1.48-4.23-2.27-6.32-.17-.47-.35-.95-.53-1.41-.29-.78-.59-1.54-.9-2.32-.25-.62-.49-1.24-.74-1.86-.36-.91-.74-1.83-1.12-2.74-.39-.95-.79-1.88-1.2-2.82-.17-.41-.35-.82-.53-1.22-.42-.97-.85-1.93-1.28-2.88-.53-1.17-1.07-2.35-1.62-3.5l-.02-.06c-.47-.99-.95-1.98-1.44-2.96-.16-.34-.32-.67-.5-1.01-.55-1.12-1.12-2.24-1.69-3.36h0Z"/>
        <path class="cls-5" d="M535.65,178.38l-17.6,9.08-1.06.55h0c.57,1.13,1.14,2.25,1.69,3.37.17.33.33.67.5,1.01.49.99.97,1.97,1.44,2.96l.02.06c.55,1.16,1.09,2.33,1.62,3.5.44.95.86,1.92,1.28,2.88.18.4.36.82.53,1.22.41.94.81,1.87,1.2,2.82.38.91.76,1.82,1.12,2.74.25.62.5,1.24.74,1.86.31.77.6,1.54.9,2.32.18.47.36.95.53,1.41.79,2.09,1.54,4.2,2.27,6.32.08.22.15.43.23.66.39,1.14.77,2.27,1.14,3.41s.73,2.29,1.08,3.43c.07.23.15.45.21.67.65,2.14,1.29,4.29,1.87,6.45.14.48.27.97.4,1.46.22.8.43,1.59.63,2.4.17.65.33,1.29.49,1.94.25.95.48,1.92.7,2.87.24.99.47,1.98.69,2.98.1.43.2.87.29,1.31.23,1.03.45,2.06.66,3.09.26,1.26.52,2.52.75,3.78l.02.06c.2,1.08.39,2.15.58,3.24.07.37.13.73.19,1.11.21,1.23.41,2.47.61,3.71h0s1.18-.17,1.18-.17l19.58-3c-2.15-13.97-5.45-27.94-9.96-41.82-4.51-13.88-10.05-27.12-16.52-39.69Z"/>
      </g>
      <g>
        <path class="cls-5" d="M136.48,325.04l1.1-.17,24.04-3.68.85-.13c.39,2.31.85,4.62,1.36,6.94,1.09,4.98,2.45,9.96,4.06,14.93s3.45,9.79,5.49,14.46c.95,2.17,1.94,4.31,2.98,6.41l-.77.4-21.61,11.15-.99.51c-3.89-7.89-7.25-16.18-10.06-24.83-2.81-8.65-4.96-17.33-6.45-26Z"/>
        <path class="cls-2" d="M162.47,321.06l103.76-15.87,8.91-1.36,1.98-.31c.17,1.22.46,2.43.85,3.63s.87,2.36,1.44,3.44l-1.78.92-8,4.14-93.28,48.15c-1.04-2.1-2.03-4.24-2.98-6.41-2.04-4.67-3.87-9.5-5.49-14.46s-2.97-9.95-4.06-14.93c-.51-2.32-.97-4.63-1.36-6.94Z"/>
        <path class="cls-2" d="M58.63,336.94l77.85-11.9c1.49,8.67,3.64,17.35,6.45,26,2.81,8.65,6.17,16.93,10.06,24.83l-69.98,36.13h0c-.57-1.13-1.14-2.25-1.69-3.37-.17-.33-.33-.67-.5-1.01-.49-.98-.97-1.97-1.44-2.96l-.02-.06c-.55-1.16-1.09-2.33-1.62-3.5-.44-.95-.86-1.92-1.28-2.88-.18-.4-.36-.82-.53-1.22-.41-.94-.81-1.87-1.2-2.82-.38-.91-.76-1.82-1.12-2.74-.25-.62-.5-1.24-.74-1.86-.31-.77-.6-1.54-.9-2.32-.18-.47-.36-.95-.53-1.41-.79-2.09-1.54-4.2-2.27-6.32-.08-.22-.15-.43-.23-.66-.39-1.14-.77-2.27-1.14-3.41s-.73-2.29-1.08-3.43c-.07-.23-.15-.45-.21-.67-.65-2.14-1.29-4.29-1.87-6.45-.14-.48-.27-.97-.4-1.46-.22-.8-.43-1.59-.63-2.4-.17-.65-.33-1.29-.49-1.94-.25-.95-.48-1.92-.7-2.87-.24-.99-.47-1.98-.69-2.98-.1-.43-.2-.87-.29-1.31-.23-1.03-.45-2.06-.66-3.09-.26-1.26-.52-2.52-.75-3.78l-.02-.06c-.2-1.08-.4-2.16-.58-3.24-.07-.37-.13-.73-.19-1.11-.21-1.23-.41-2.47-.61-3.71h0Z"/>
        <path class="cls-5" d="M37.86,340.12l19.58-3,1.18-.18h0c.19,1.25.4,2.49.61,3.72.06.37.12.74.19,1.11.18,1.09.38,2.16.58,3.24l.02.06c.23,1.26.48,2.52.75,3.78.21,1.03.43,2.06.66,3.09.09.43.19.87.29,1.31.22,1,.45,1.99.69,2.98.23.96.46,1.92.7,2.87.16.65.33,1.29.49,1.94.2.81.41,1.6.63,2.4.13.48.26.98.4,1.46.58,2.15,1.22,4.3,1.87,6.45.06.22.13.44.21.67.35,1.15.71,2.29,1.08,3.43s.75,2.28,1.14,3.41c.07.23.15.45.23.66.73,2.12,1.48,4.23,2.27,6.32.17.47.35.95.53,1.41.29.78.59,1.54.9,2.32.25.62.49,1.24.74,1.86.36.91.74,1.83,1.12,2.74.39.95.79,1.88,1.2,2.82.17.41.35.82.53,1.22.42.97.85,1.93,1.28,2.88.53,1.17,1.07,2.35,1.62,3.5l.02.06c.47.99.95,1.97,1.44,2.96.16.34.32.67.5,1.01.55,1.12,1.12,2.24,1.69,3.36h0s-1.06.55-1.06.55l-17.6,9.08c-6.47-12.57-12.01-25.81-16.52-39.69-4.51-13.88-7.81-27.85-9.96-41.82Z"/>
      </g>
    </g>
    <g>
      <g>
        <path class="cls-5" d="M374.34,152.22l-.5,1-10.93,21.73-.39.77c2.08,1.09,4.13,2.24,6.18,3.44,4.4,2.58,8.72,5.41,12.94,8.47,4.22,3.07,8.25,6.3,12.06,9.69,1.77,1.57,3.5,3.18,5.18,4.81l.61-.61,17.29-17.11.79-.78c-6.31-6.14-13.15-11.9-20.5-17.24-7.35-5.34-14.95-10.07-22.73-14.17Z"/>
        <path class="cls-2" d="M362.53,175.71l-47.16,93.78-4.04,8.05-.9,1.79c1.1.54,2.16,1.19,3.19,1.94s1.97,1.56,2.83,2.44l1.42-1.41,6.41-6.33,74.62-73.83c-1.68-1.64-3.41-3.24-5.18-4.81-3.81-3.38-7.84-6.62-12.06-9.69-4.22-3.07-8.54-5.9-12.94-8.47-2.04-1.2-4.1-2.35-6.18-3.44Z"/>
        <path class="cls-2" d="M409.72,81.85l-35.38,70.37c7.79,4.1,15.38,8.83,22.73,14.17,7.35,5.34,14.19,11.1,20.5,17.24l55.99-55.39h0c-.89-.9-1.78-1.78-2.67-2.65-.26-.27-.53-.52-.8-.78-.78-.76-1.57-1.53-2.37-2.28l-.05-.04c-.93-.88-1.87-1.76-2.83-2.62-.77-.71-1.56-1.41-2.35-2.11-.33-.3-.67-.6-1-.89-.77-.68-1.53-1.35-2.31-2.01-.75-.64-1.5-1.29-2.26-1.91-.51-.43-1.02-.85-1.54-1.28-.64-.54-1.28-1.05-1.92-1.57-.39-.32-.79-.63-1.18-.94-1.74-1.4-3.52-2.76-5.31-4.11-.18-.14-.37-.28-.56-.42-.96-.72-1.92-1.43-2.89-2.14s-1.95-1.4-2.93-2.09c-.19-.14-.38-.28-.57-.4-1.84-1.28-3.68-2.55-5.55-3.77-.42-.28-.84-.56-1.26-.83-.69-.46-1.38-.91-2.09-1.34-.57-.36-1.12-.72-1.69-1.07-.83-.53-1.68-1.04-2.52-1.56-.87-.53-1.74-1.06-2.63-1.57-.38-.23-.77-.46-1.15-.68-.91-.54-1.82-1.06-2.73-1.58-1.12-.64-2.24-1.27-3.37-1.88l-.05-.04c-.96-.53-1.93-1.05-2.9-1.55-.33-.18-.66-.35-.99-.52-1.11-.58-2.22-1.16-3.34-1.73h0Z"/>
        <path class="cls-5" d="M419.16,63.09l-8.9,17.7-.54,1.07h0c1.12.57,2.24,1.15,3.34,1.73.33.17.66.35.99.52.98.51,1.94,1.02,2.9,1.55l.05.04c1.13.61,2.25,1.24,3.37,1.88.91.51,1.83,1.04,2.73,1.58.39.22.77.45,1.15.68.88.52,1.75,1.04,2.63,1.57.84.51,1.69,1.03,2.52,1.56.57.35,1.13.71,1.69,1.07.71.44,1.39.89,2.09,1.34.42.27.85.55,1.26.83,1.87,1.22,3.72,2.49,5.55,3.77.19.13.38.26.57.4.98.69,1.96,1.39,2.93,2.09s1.94,1.42,2.89,2.14c.19.14.38.28.56.42,1.79,1.35,3.57,2.71,5.31,4.11.39.31.79.63,1.18.94.65.52,1.29,1.03,1.92,1.57.52.43,1.03.85,1.54,1.28.76.62,1.51,1.27,2.26,1.91.78.66,1.54,1.33,2.31,2.01.33.29.67.59,1,.89.79.7,1.58,1.4,2.35,2.11.95.87,1.9,1.74,2.83,2.62l.05.04c.8.75,1.59,1.51,2.37,2.28.27.26.54.52.8.78.9.87,1.79,1.76,2.67,2.65h0s.85-.84.85-.84l14.08-13.94c-9.95-10.04-20.83-19.4-32.64-27.98-11.8-8.58-24.07-16.03-36.69-22.4Z"/>
      </g>
      <g>
        <path class="cls-5" d="M182.42,416.37l.79-.78,17.29-17.11.61-.61c1.68,1.64,3.41,3.24,5.18,4.81,3.81,3.38,7.84,6.62,12.06,9.69,4.22,3.07,8.54,5.9,12.94,8.47,2.04,1.2,4.1,2.35,6.18,3.44l-.39.77-10.93,21.73-.5,1c-7.79-4.1-15.38-8.83-22.73-14.17-7.35-5.34-14.19-11.1-20.5-17.24Z"/>
        <path class="cls-2" d="M201.12,397.87l74.62-73.83,6.41-6.33,1.42-1.41c.86.88,1.8,1.69,2.83,2.44s2.09,1.39,3.19,1.94l-.9,1.79-4.04,8.05-47.16,93.78c-2.08-1.09-4.13-2.24-6.18-3.44-4.4-2.58-8.72-5.41-12.94-8.47-4.22-3.07-8.25-6.3-12.06-9.69-1.77-1.57-3.5-3.18-5.18-4.81Z"/>
        <path class="cls-2" d="M126.43,471.76l55.99-55.39c6.31,6.14,13.15,11.9,20.5,17.24,7.35,5.34,14.95,10.07,22.73,14.17l-35.38,70.37h0c-1.12-.57-2.24-1.15-3.34-1.73-.33-.17-.66-.35-.99-.52-.97-.51-1.94-1.02-2.9-1.55l-.05-.04c-1.13-.61-2.25-1.24-3.37-1.88-.91-.51-1.83-1.04-2.73-1.58-.39-.22-.77-.45-1.15-.68-.88-.52-1.75-1.04-2.63-1.57-.84-.51-1.69-1.03-2.52-1.56-.57-.35-1.13-.71-1.69-1.07-.71-.44-1.39-.89-2.09-1.34-.42-.27-.85-.55-1.26-.83-1.87-1.22-3.72-2.49-5.55-3.77-.19-.13-.38-.26-.57-.4-.98-.69-1.96-1.39-2.93-2.09s-1.94-1.42-2.89-2.14c-.19-.14-.38-.28-.56-.42-1.79-1.35-3.57-2.71-5.31-4.11-.39-.31-.79-.63-1.18-.94-.65-.52-1.29-1.03-1.92-1.57-.52-.43-1.03-.85-1.54-1.28-.76-.62-1.51-1.27-2.26-1.91-.78-.66-1.54-1.33-2.31-2.01-.33-.29-.67-.59-1-.89-.79-.7-1.58-1.4-2.35-2.11-.95-.87-1.9-1.74-2.83-2.62l-.05-.04c-.8-.75-1.59-1.52-2.37-2.28-.27-.26-.54-.52-.8-.78-.9-.87-1.79-1.76-2.67-2.65h0Z"/>
        <path class="cls-5" d="M111.51,486.54l14.08-13.94.85-.84h0c.89.9,1.78,1.78,2.67,2.65.26.27.53.52.8.78.79.77,1.57,1.53,2.37,2.28l.05.04c.93.88,1.87,1.76,2.83,2.62.77.71,1.56,1.41,2.35,2.11.33.3.67.6,1,.89.77.68,1.53,1.35,2.31,2.01.75.64,1.5,1.29,2.26,1.91.51.43,1.02.85,1.54,1.28.64.54,1.28,1.05,1.92,1.57.39.32.79.63,1.18.94,1.74,1.4,3.52,2.76,5.31,4.11.18.14.37.28.56.42.96.72,1.92,1.43,2.89,2.14s1.95,1.4,2.93,2.09c.19.14.38.28.57.4,1.84,1.28,3.68,2.55,5.55,3.77.42.28.84.56,1.26.83.69.46,1.38.91,2.09,1.34.57.36,1.12.72,1.69,1.07.83.53,1.68,1.04,2.52,1.56.87.53,1.74,1.06,2.63,1.57.38.23.77.46,1.15.68.91.54,1.82,1.06,2.73,1.58,1.12.64,2.24,1.27,3.37,1.88l.05.04c.96.53,1.93,1.04,2.9,1.55.33.18.66.35.99.52,1.11.58,2.22,1.16,3.34,1.73h0s-.54,1.07-.54,1.07l-8.9,17.7c-12.62-6.36-24.89-13.82-36.69-22.4-11.8-8.58-22.69-17.94-32.64-27.98Z"/>
      </g>
    </g>
  </g>
  <g>
    <circle class="cls-5" cx="300" cy="300" r="29"/>
    <circle class="cls-6" cx="300" cy="300" r="14"/>
  </g>
</svg>