<?xml version="1.0" encoding="UTF-8"?>
<svg id="Layer_1" xmlns="http://www.w3.org/2000/svg" viewBox="0 0 47.5 40">
  <path d="M45,0H2.5C1.13,0,0,1.12,0,2.5v25c0,1.37,1.13,2.5,2.5,2.5h42.5c1.37,0,2.5-1.13,2.5-2.5V2.5c0-1.38-1.13-2.5-2.5-2.5ZM45,26.25c0,.69-.56,1.25-1.25,1.25H3.75c-.69,0-1.25-.56-1.25-1.25V3.75c0-.69.56-1.25,1.25-1.25h40c.69,0,1.25.56,1.25,1.25v22.5Z"/>
  <polygon points="30 38.75 17.5 38.75 20.62 28.13 26.88 28.13 30 38.75"/>
  <rect x="10" y="37.5" width="27.5" height="2.5" rx="1" ry="1"/>
</svg>