<?xml version="1.0" encoding="UTF-8"?>
<svg xmlns="http://www.w3.org/2000/svg" version="1.1" viewBox="0 0 240 234">
  <defs>
    <style>
      .cls-1 {
        fill: #00b6ff;
      }

      .cls-2 {
        fill: #ff3737;
      }

      .cls-3 {
        fill: #24cb71;
      }

      .cls-4 {
        fill: #874fff;
      }

      .cls-5 {
        fill: #ff7237;
      }
    </style>
  </defs>
  <!-- Generator: Adobe Illustrator 28.7.4, SVG Export Plug-In . SVG Version: 1.2.0 Build 166)  -->
  <g>
    <g id="Layer_1">
      <path class="cls-3" d="M42,195c0-21.5,17.5-39,39-39h39v39c0,21.5-17.5,39-39,39s-39-17.5-39-39Z"/>
      <path class="cls-5" d="M120,0v78h39c21.5,0,39-17.5,39-39S180.5,0,159,0h-39Z"/>
      <circle class="cls-1" cx="158.7" cy="117" r="39"/>
      <path class="cls-2" d="M42,39c0,21.5,17.5,39,39,39h39V0h-39c-21.5,0-39,17.5-39,39Z"/>
      <path class="cls-4" d="M42,117c0,21.5,17.5,39,39,39h39v-78h-39c-21.5,0-39,17.5-39,39Z"/>
    </g>
  </g>
</svg>