<?xml version="1.0" encoding="UTF-8"?>
<svg id="es" xmlns="http://www.w3.org/2000/svg" viewBox="0 0 64 64">
  <defs>
    <style>
      .cls-1 {
        fill: #64ffda;
      }
    </style>
  </defs>
  <path class="cls-1" d="M58.6,15.56c-.33-.58-.68-1.14-1.05-1.69-3.19-4.78-7.6-8.62-12.77-11.03-2.17-1.02-4.48-1.78-6.88-2.26-.94-.19-1.9-.33-2.87-.42-.75-.08-1.51-.13-2.27-.15-.25-.01-.51-.01-.76-.01s-.51,0-.76.01c-.76.02-1.52.07-2.27.15-.97.09-1.93.23-2.87.42-2.4.48-4.71,1.24-6.88,2.26-5.17,2.41-9.58,6.25-12.77,11.03-.37.55-.72,1.11-1.05,1.69-2.8,4.81-4.4,10.43-4.4,16.44s1.6,11.63,4.4,16.44c.33.58.68,1.14,1.05,1.69,3.19,4.78,7.6,8.62,12.77,11.03,2.17,1.02,4.48,1.78,6.88,2.26.94.19,1.9.33,2.87.42.75.08,1.51.13,2.27.15.25.01.51.01.76.01s.51,0,.76-.01c.76-.02,1.52-.07,2.27-.15.97-.09,1.93-.23,2.87-.42,2.4-.48,4.71-1.24,6.88-2.26,5.17-2.41,9.58-6.25,12.77-11.03.37-.55.72-1.11,1.05-1.69,2.8-4.81,4.4-10.43,4.4-16.44s-1.6-11.63-4.4-16.44ZM60.98,31h-14.99c-.04-4.23-.33-8.24-.84-11.89,4.51-.63,8.47-1.58,11.58-2.76,2.55,4.29,4.08,9.3,4.25,14.65ZM55.63,14.64c-2.79,1-6.43,1.89-10.77,2.51-.98-5.99-2.54-10.86-4.44-13.86,6.2,1.95,11.53,6,15.21,11.35ZM33,2.02c.76.02,1.51.08,2.25.18.67.06,1.32.16,1.97.3,2.04,1.57,4.33,6.87,5.66,14.9-1.56.18-3.2.33-4.92.42-.65.05-1.31.08-1.99.1-.96.04-1.95.06-2.97.07V2.02ZM26.78,2.5c.65-.14,1.3-.24,1.97-.3.74-.1,1.49-.16,2.25-.18v15.97c-1.02-.01-2.01-.03-2.97-.07-.68-.02-1.34-.05-1.99-.1-1.72-.09-3.36-.24-4.92-.42,1.33-8.03,3.62-13.33,5.66-14.9ZM23.58,3.29c-1.9,3-3.46,7.87-4.44,13.86-4.34-.62-7.98-1.51-10.77-2.51,3.68-5.35,9.01-9.4,15.21-11.35ZM7.27,16.35c3.11,1.18,7.07,2.13,11.58,2.76-.51,3.65-.8,7.66-.84,11.89H3.02c.17-5.35,1.7-10.36,4.25-14.65ZM3.02,33h14.99c.04,4.23.33,8.24.84,11.89-4.51.63-8.47,1.58-11.58,2.76-2.55-4.29-4.08-9.3-4.25-14.65ZM8.37,49.36c2.79-1,6.43-1.89,10.77-2.51.98,5.99,2.54,10.86,4.44,13.86-6.2-1.95-11.53-6-15.21-11.35ZM31,61.98c-.76-.02-1.51-.08-2.25-.18-.67-.06-1.32-.16-1.97-.3-2.04-1.57-4.33-6.87-5.66-14.9,1.56-.18,3.2-.33,4.92-.42.65-.05,1.31-.08,1.99-.1.96-.04,1.95-.06,2.97-.07v15.97ZM31,38v6l-3.25.09c-.67.03-1.34.06-1.99.1-1.7.11-3.35.25-4.94.44-.47-3.45-.77-7.35-.81-11.63h.99v-2h-.99c.04-4.28.34-8.18.81-11.63,1.59.19,3.24.33,4.94.44.65.04,1.32.07,1.99.1,1.07.05,2.15.07,3.25.08v6.01h2v-6.01c1.1-.01,2.18-.03,3.25-.08.67-.03,1.34-.06,1.99-.1,1.7-.11,3.35-.25,4.94-.44.47,3.45.77,7.35.81,11.63h-.99v2h.99c-.04,4.28-.34,8.18-.81,11.63-1.59-.19-3.24-.33-4.94-.44-.65-.04-1.32-.07-1.99-.1l-3.25-.09v-6h-2ZM37.22,61.5c-.65.14-1.3.24-1.97.3-.74.1-1.49.16-2.25.18v-15.97c1.02,0,2.01.03,2.97.07.68.02,1.34.05,1.99.1,1.72.09,3.36.24,4.92.42-1.33,8.03-3.62,13.33-5.66,14.9ZM40.42,60.71c1.9-3,3.46-7.87,4.44-13.86,4.34.62,7.98,1.51,10.77,2.51-3.68,5.35-9.01,9.4-15.21,11.35ZM56.73,47.65c-3.11-1.18-7.07-2.13-11.58-2.76.51-3.65.8-7.66.84-11.89h14.99c-.17,5.35-1.7,10.36-4.25,14.65Z"/>
  <g>
    <path class="cls-1" d="M23.33,27.35h7.71v1.99h-4.82v1.48h4.47v1.9h-4.47v1.83h4.96v2.11h-7.85v-9.31Z"/>
    <path class="cls-1" d="M32.23,33.57l2.74-.17c.06.44.18.78.36,1.02.3.38.72.56,1.27.56.41,0,.73-.1.95-.29.22-.19.33-.42.33-.67s-.11-.46-.32-.65c-.21-.19-.7-.37-1.47-.54-1.26-.28-2.16-.66-2.7-1.13-.54-.47-.81-1.07-.81-1.8,0-.48.14-.93.42-1.36.28-.42.69-.76,1.25-1,.56-.24,1.32-.36,2.29-.36,1.19,0,2.1.22,2.72.66.62.44,1,1.15,1.11,2.11l-2.71.16c-.07-.42-.22-.72-.45-.91s-.55-.29-.96-.29c-.33,0-.59.07-.76.21-.17.14-.25.31-.25.52,0,.15.07.28.21.4.14.12.46.24.96.34,1.26.27,2.16.54,2.7.82.54.28.94.62,1.19,1.03.25.41.37.87.37,1.38,0,.6-.16,1.15-.49,1.65s-.79.89-1.38,1.15c-.59.26-1.34.39-2.24.39-1.58,0-2.68-.3-3.29-.91s-.95-1.38-1.03-2.32Z"/>
  </g>
</svg>