<?xml version="1.0" encoding="UTF-8"?>
<svg id="Layer_1" xmlns="http://www.w3.org/2000/svg" viewBox="0 0 585.12 597.35">
  <defs>
    <style>
      .cls-1 {
        fill: #EBF7FF;
      }
    </style>
  </defs>
  <path class="cls-1" d="M585.09,282.87c-.02-2.95-.05-5.91-.07-8.87-.7-5.78-1.29-11.57-2.1-17.33-9.33-66.06-36.87-123.47-83.82-170.79C446.35,32.73,381.51,5.37,307.11,0h-28.1c-16.27,1.06-32.46,3.06-48.31,6.79-64.83,15.21-119.39,47.31-162.22,98.85C25.72,157.1,3.98,216.54.02,282.92c-.01,9.75-.01,19.49-.02,29.24.1,10.34,1.28,20.58,2.78,30.8,6.09,41.52,18.95,80.74,41.95,115.95,53.27,81.58,128.46,128.02,225.71,137.23,48.34,4.58,94.97-3.97,139.19-23.9,69.32-31.23,120.03-81.41,150.93-151.12,14.79-33.37,22.43-68.48,24.56-104.84-.01-11.14-.02-22.27-.03-33.41ZM549.73,292.61c-.15,61.22-14.95,112.57-47.37,158.29-36.49,51.44-85.03,85.92-146.28,102.02-37.35,9.81-74.98,10.64-112.76,3.02-62.06-12.52-112.39-44.26-151.76-93.57-28.66-35.9-46.63-76.74-52.79-122.18-10.44-76.92,5.57-147.5,55.04-208.53,41.09-50.69,93.92-82.58,158.92-92.26,84.26-12.54,157.36,11.45,218.66,70.27,39.74,38.14,63.72,85.2,74.03,139.17,3.09,16.19,4.54,32.63,4.31,43.77Z"/>
  <path class="cls-1" d="M95.7,172.81c-.64,79.83-.34,158.1-.17,237.1-3.38-2.97-5.31-6.49-7.33-9.94-3.01-7.11-8.28-12.8-12.31-19.27-1.95-3.14-2.77-6.2-2.77-9.83.07-50.97.1-101.94-.04-152.92-.01-5.07.82-9.49,4.1-13.42,1.04-1.25,2.06-2.63,2.09-4.42,5.25-8.72,10.5-17.44,16.43-27.3Z"/>
  <path class="cls-1" d="M119.78,144.25c-.78-1.84-1.9-3.45.33-5.25,14.39-11.68,28.7-23.45,43.9-35.89v143.42c-1.24.33-1.51-.46-1.83-1.24-14.13-33.69-28.26-67.37-42.4-101.04Z"/>
  <path class="cls-1" d="M208.7,141.46c-6.35,15.88-12.64,31.78-18.94,47.67-.27-.03-.53-.06-.8-.09v-63.24c6.77,4.09,13.12,7.91,19.45,11.78,1.8,1.1.87,2.44.29,3.88Z"/>
  <path class="cls-1" d="M277.49,403.37v-25.54c-.03-66.26-.02-132.52-.2-198.77-.02-4.74,1.11-4.48,4.4-2.46,15.14,9.26,31.42,16.57,45.61,27.48,52.74,40.58,57.12,129.79-5.24,171.58-14.3,9.59-29.24,18.22-44.57,27.71Z"/>
  <path class="cls-1" d="M378.96,88.2c6.07,1.24,11.95,3.1,17.29,6.12,10.75,6.06,22.12,8.59,34.44,8.06,11.59-.49,21.52,3.58,29.12,12.64.42.49.75,1.06,1.12,1.6-20.98-9.18-41.44-5.94-61.75.56-19.28,6.16-37.93,5.51-56.23-3.45-3.84-1.88-7.98-3.16-12.02-4.73,8.85-16.33,28.62-24.77,48.03-20.8Z"/>
  <path class="cls-1" d="M531.09,289.58c-10.08,7.27-20.75,8.84-32.02,5.49-3.48-1.03-4.45-.29-5.72,2.81-4.22,10.28-12.23,16.46-23.06,20.15,10.79-17.49,10.58-30.53-.33-40.42-1.64.51-1,1.88-1.04,2.93-.49,14.45-5.32,27.08-16.28,36.79-2.93,2.58-2.28,4.29-1.32,7.6,6.24,21.42,14.24,42.42,28.67,60.38,6.34,7.89,2.1,13.92-7.68,16.54-3.27.88-6.58.92-9.91.9-9.18-.06-14.02,4.87-13.91,14.14.03,2.34.2,4.76,1.46,6.76,2.58,4.1,1,6.31-3.05,7.66-.47.16-.9.42-1.36.64-8.89,4.17-9,4.21-5.82,13.38.89,2.58.44,4.1-1.88,5.3-9.95,5.18-12.05,13.19-9.1,23.55,1.62,5.72,2.72,11.78.94,17.73-2.83,9.43-11.88,15.56-22.99,16.03-11.46.47-22.47-2.51-33.55-4.57-22.71-4.22-37.89,2.8-48.85,23.23-4.48,8.35-7.83,17.16-10.52,26.45-40.78-22.55-81.28-44.95-122.65-67.82,13.08-8.1,25.2-15.59,37.31-23.09,34.8-21.55,70.1-42.34,104.27-64.84,42.14-27.73,62.16-67.7,58.27-118.15-3.69-47.95-27.65-83.85-69.25-107.82-21.47-12.37-43.25-24.18-64.78-36.44-3.86-2.2-3.54-.45-3.54,2.44.06,92.11.03,184.23.17,276.35,0,3.69-1.23,5.55-4.3,7.4-19.36,11.68-38.59,23.6-57.87,35.43-.67.41-1.24,1.16-2.79.6v-148.16c-.4-.08-.81-.17-1.21-.25-7.79,18.8-15.57,37.6-23.79,57.46-7.96-19.24-15.52-37.49-23.07-55.74-.36.09-.73.18-1.09.27v149.69c-7.1-6.72-13.3-12.62-19.53-18.48-1.46-1.37-.96-3.09-.96-4.7,0-74.96.03-149.92.05-224.88,0-2.96,0-5.93.77-9.17,14.52,35.32,29.04,70.63,44.17,107.43,15.14-37.18,29.4-73.09,45.54-108.4,0,7.7.01,15.39,0,23.09-.03,61.8-.08,123.6-.08,185.39,0,1.05-.86,2.48.55,3.13,1.27.59,2.05-.76,3-1.33,5.28-3.17,10.43-6.56,15.84-9.48,3.36-1.81,4.43-4.03,4.42-7.89-.13-86.12-.32-172.24.18-258.35.06-10.39-2.06-16.67-11.95-21.2-10.82-4.95-20.66-12.02-31.06-17.92-2.84-1.61-3.12-2.75-.96-5.09,7-7.62,15.92-11.23,25.91-12.49,11.2-1.42,21.89.86,32.1,5.35,18.78,8.27,35.87,6.09,51.44-7.54,17.57-15.38,37.53-19.08,59.54-11.45,5.27,1.82,10.07,4.63,14.7,9.31-14.2-.38-26.46,2.89-37.33,10.77-6.31,4.56-11.36,10.33-15.21,16.97-1.84,3.17-3.85,3.82-7.18,3.6-14.11-.97-27.52,1.46-39.63,9.16-1.59,1.01-4.2,1.82-3.76,4.12.33,1.75,2.75,2.16,4.41,2.85,2.43,1.02,4.8,2.17,7.66,1.33,18.75-5.47,36.45-2.64,53.5,6.51,21.86,11.73,44.07,11.97,66.77,2.01,11.55-5.07,23.69-8.05,36.44-4.28,2.65.78,5.32,1.55,7.82,3.89-6.61,2.06-12.52,4.52-17.77,8.34-4.25,3.09-7.56,6.93-9.86,11.7-1.22,2.54-.41,3.3,2.1,3.34,5.53.1,10.93-.98,16.37-1.65,8.82-1.07,17.65-1.24,26.29,1.06,11.79,3.14,20.96,9.88,26.86,20.74,1.74,3.22,3.41,6.47,5.17,9.67,4.51,8.19,10.22,15.14,20.51,18.53-10.08,5.03-18.78,4.63-27.02-1.79-8.42-6.57-17.09-12.68-27.86-14.91-5.42-1.11-10.92-1.47-16.39-1.29-14.63.48-26.92-3.7-35.16-16.61-.14-.22-.58-.23-.88-.34-1.63,6.68,1.71,15.09,8.06,20.33,6.64,5.49,14.6,6.98,22.85,7.23,7.99.24,15.98.05,23.74,2.51,22.47,7.11,35.76,21.97,39.17,45.53,2.02,13.9,6.44,26.82,16.73,37.07,3.22,3.21,7.1,5.32,11.57,7.48Z"/>
</svg>