<?xml version="1.0" encoding="UTF-8"?>
<svg id="Layer_1" xmlns="http://www.w3.org/2000/svg" viewBox="0 0 64 64">
  <defs>
    <style>
      .cls-1 {
        fill: #EBF7FF;
      }

      .cls-2 {
        fill: #2B0099;
      }
    </style>
  </defs>
  <path class="cls-1" d="M62.26,27.95c-.54-.19-2.04-.29-2.98-.35-2.05-.13-3.23-.23-3.79-.75-.08-.08-.15-.17-.19-.27l-3.12-7.1c-.06-.15-.09-.32-.05-.48.17-.89,1.14-1.94,2.27-3.16.67-.72,1.76-1.91,1.93-2.41-.75-.89-4.79-4.95-5.76-5.79-.6.26-1.99,1.57-2.76,2.3-1.6,1.51-2.19,2.01-2.8,2.01h-.02c-.11,0-.21-.03-.31-.07l-7.28-3.22c-.16-.07-.29-.19-.38-.34-.43-.75-.51-2.04-.6-3.54-.06-.93-.16-2.62-.44-3.07-1.16-.14-6.76-.14-7.94,0-.26.46-.35,2.14-.41,3.07-.11,2.09-.22,3.4-.98,3.97-.05.04-.11.07-.17.1l-7.1,2.96c-.27.11-.57.07-.8-.1l-5.07-3.84-6.01,5.73c.13.13.26.26.4.4,2.8,2.82,4.1,4.36,3.92,5.46-.04.23-.16.46-.6,1.34-.67,1.31-1.92,3.76-2.37,5.65-.04.14-.11.27-.21.38-.52.53-1.63.63-3.7.75-.98.06-2.57.16-3.11.37-.18,1.29-.27,6.89-.17,7.6.21.67,2,.75,3.31.8,1.69.07,3.28.14,3.95,1.18.11.16.18.38.45,1.2.46,1.38,1.32,3.95,2.37,5.78.16.28.14.62-.04.88-1.05,1.47-1.97,2.53-2.64,3.3-1.01,1.16-1.35,1.6-1.24,1.94.2.6,1.38,1.65,3.33,3.39.72.64,1.52,1.35,2.45,2.19.57-.34,1.44-1.15,2.11-1.77,1.53-1.42,2.57-2.34,3.52-2.34.09,0,.17,0,.26.02.22.04.44.16,1.26.58,1.33.69,3.8,1.97,5.7,2.42.21.05.39.18.5.36.54.87.59,2.17.64,3.55.05,1.39.11,3.11.81,3.27.64.11,6.34.03,7.62-.14.21-.5.3-1.96.35-2.87.1-1.57.18-2.93.62-3.7.11-.19.28-.33.49-.38,1.89-.53,4.21-1.73,5.6-2.45.92-.48,1.17-.6,1.41-.65,1.14-.18,2.33.96,3.73,2.27.68.65,1.92,1.83,2.4,1.9.75-.64,4.86-4.8,5.7-5.83-.24-.5-1.27-1.63-1.91-2.32-1.27-1.37-2.05-2.26-2.26-3.01-.06-.22-.03-.45.09-.64.97-1.59,1.85-4.15,2.38-5.67.35-1.02.45-1.3.6-1.49.63-.84,2.08-.9,3.76-.98,1.09-.05,3.12-.13,3.34-.65.1-.84.07-6.45-.06-7.76ZM33.89,45.84c-.79.11-1.57.16-2.3.16-7.95,0-12.44-6.03-13.29-12.12-.93-6.66,2.35-14.43,11.73-15.77l.17-.02c9.4-1.22,14.63,5.39,15.52,12.05.89,6.66-2.44,14.41-11.83,15.69Z"/>
  <path class="cls-2" d="M63.99,31.67c-.03-4.18-.17-4.4-.32-4.63-.5-.78-1.89-.9-4.3-1.05-.9-.06-2.22-.14-2.7-.3l-2.89-6.56c.27-.52,1.17-1.5,1.8-2.17,1.56-1.69,2.8-3.03,2.26-4.17-.26-.55-6.1-6.41-6.64-6.68-1.06-.52-2.34.61-4.51,2.66-.56.53-1.3,1.23-1.68,1.5l-6.67-2.95c-.18-.56-.24-1.68-.3-2.61-.12-2.05-.23-3.83-1.26-4.43-.19-.11-.47-.28-4.77-.28h-.03c-4.27,0-4.55.16-4.75.28-1.01.6-1.1,2.37-1.21,4.42-.05.88-.13,2.31-.33,2.73l-6.49,2.71-5.24-3.98c-.32-.24-.76-.21-1.05.06l-7.1,6.77c-.32.31-.34.81-.04,1.14.23.25.59.61,1,1.03.89.9,3.24,3.27,3.45,4.06-.08.18-.26.53-.43.85-.71,1.38-1.86,3.65-2.41,5.64-.51.13-1.7.21-2.53.26-2.42.15-3.81.28-4.37,1.02-.17.22-.34.45-.44,4.52-.02.91-.08,3.92.07,4.47.5,1.83,2.8,1.92,4.82,2.01.83.04,2.36.1,2.63.4.05.13.18.5.3.86.44,1.33,1.23,3.71,2.25,5.61-.87,1.19-1.62,2.06-2.24,2.77-1.19,1.37-1.97,2.27-1.55,3.52.34,1.02,1.42,1.98,3.79,4.08.81.72,1.72,1.53,2.81,2.53.19.18.46.25.72.19.93-.2,1.99-1.18,3.22-2.32.72-.67,1.91-1.77,2.37-1.89.16.08.5.25.8.41,1.31.68,3.68,1.91,5.7,2.46.2.58.24,1.58.27,2.48.07,2.05.16,4.36,2.07,4.8.31.07,1.33.09,2.32.09.93,0,1.84-.01,2.14-.02,4.04-.08,4.26-.25,4.49-.42.75-.58.88-1.95,1.01-4.13.06-.97.13-2.13.31-2.73,1.96-.61,4.17-1.76,5.53-2.46.36-.19.77-.4.94-.48.45.07,1.62,1.18,2.32,1.85,1.53,1.45,2.97,2.82,4.24,2.19.11-.05.44-.22,3.41-3.25,3.02-3.1,3.12-3.37,3.19-3.58.31-.97-.63-2.06-2.33-3.9-.62-.67-1.43-1.56-1.76-2.08.97-1.73,1.8-4.13,2.31-5.61.14-.41.3-.87.38-1.05.33-.22,1.69-.28,2.51-.32,2.04-.09,4.36-.19,4.84-1.85.12-.42.11-3.26.1-4.47ZM62.32,35.71c-.22.52-2.24.6-3.34.65-1.68.07-3.13.14-3.76.98-.14.19-.24.47-.6,1.49-.53,1.53-1.41,4.08-2.38,5.67-.12.19-.15.43-.09.64.21.75.99,1.63,2.26,3.01.64.69,1.67,1.81,1.91,2.32-.84,1.03-4.95,5.19-5.7,5.83-.48-.07-1.72-1.25-2.4-1.9-1.39-1.32-2.59-2.45-3.73-2.27-.23.04-.48.17-1.41.65-1.39.72-3.71,1.93-5.6,2.45-.21.06-.38.2-.49.38-.44.77-.52,2.13-.62,3.7-.06.91-.15,2.37-.35,2.87-1.28.17-6.99.25-7.62.14-.7-.16-.76-1.89-.81-3.27-.05-1.38-.09-2.69-.64-3.55-.11-.18-.3-.31-.5-.36-1.9-.44-4.37-1.73-5.7-2.42-.82-.42-1.04-.54-1.26-.58-.09-.01-.17-.02-.26-.02-.95,0-1.98.91-3.52,2.34-.67.62-1.54,1.43-2.11,1.77-.93-.85-1.73-1.56-2.45-2.19-1.95-1.73-3.13-2.78-3.33-3.39-.11-.34.23-.77,1.24-1.94.67-.77,1.59-1.83,2.64-3.3.18-.26.2-.6.04-.88-1.06-1.83-1.91-4.4-2.37-5.78-.27-.82-.35-1.04-.45-1.2-.66-1.04-2.26-1.11-3.95-1.18-1.31-.06-3.1-.13-3.31-.8-.11-.71,0-6.32.17-7.6.54-.21,2.13-.31,3.11-.37,2.07-.13,3.18-.22,3.7-.75.1-.11.18-.24.21-.38.45-1.88,1.7-4.33,2.37-5.65.44-.87.56-1.11.6-1.34.18-1.1-1.12-2.64-3.92-5.46-.14-.14-.28-.28-.4-.4l6.01-5.73,5.07,3.84c.23.18.54.21.8.1l7.1-2.96c.06-.03.12-.06.17-.1.76-.56.87-1.88.98-3.97.05-.93.14-2.6.41-3.07,1.18-.14,6.78-.14,7.94,0,.28.45.38,2.14.44,3.07.09,1.49.17,2.78.6,3.54.09.15.22.27.38.34l7.28,3.22c.1.04.2.06.31.07h.02c.61,0,1.2-.5,2.8-2.01.77-.73,2.17-2.05,2.76-2.3.97.84,5,4.9,5.76,5.79-.17.5-1.26,1.69-1.93,2.41-1.13,1.22-2.1,2.27-2.27,3.16-.03.16-.01.33.05.48l3.12,7.1c.04.1.11.19.19.27.55.52,1.74.62,3.79.75.94.06,2.44.16,2.98.35.13,1.31.16,6.92.06,7.76Z"/>
  <path class="cls-2" d="M45.72,30.17c-.89-6.66-6.12-13.27-15.52-12.05l-.17.02c-9.38,1.34-12.66,9.11-11.73,15.77.85,6.09,5.34,12.12,13.29,12.12.74,0,1.51-.05,2.3-.16,9.39-1.28,12.72-9.03,11.83-15.69ZM43.56,32.23c0,5.1-2.95,10.41-9.98,11.37-.65.09-1.3.13-1.94.13-6.67,0-10.37-5.09-11.07-10.14-.77-5.57,1.96-12.06,9.78-13.18l.16-.02c.64-.08,1.25-.12,1.84-.12,6.68,0,10.43,5.09,11.11,10.21.08.58.11,1.16.11,1.75Z"/>
</svg>