<?xml version="1.0" encoding="UTF-8"?>
<svg xmlns="http://www.w3.org/2000/svg" version="1.1" xmlns:cc="http://creativecommons.org/ns#" xmlns:dc="http://purl.org/dc/elements/1.1/" xmlns:rdf="http://www.w3.org/1999/02/22-rdf-syntax-ns#" viewBox="0 0 240 234">
  <defs>
    <style>
      .cls-1 {
        fill: #ee2722;
      }
    </style>
  </defs>
  <!-- Generator: Adobe Illustrator 28.7.4, SVG Export Plug-In . SVG Version: 1.2.0 Build 166)  -->
  <g>
    <g id="Layer_1">
      <path class="cls-1" d="M217,80.2c-19.8-3.3-55.2-4.5-67.3,14.1-9.3,14.4,8.3,34.1,24.4,53.1,12.9,15.3,26.9,29.9,21.2,38.4-4.7,7-34.7,7-45,7.5-12.5.7-30.6.7-33.8,2.4-2.8,1.5-4.4,6.3,6.2,8.2,8.5,1.5,28.8,4.7,50.3,4.6,22.4,0,45.9-3.7,51-21,4.1-13.9-10.1-28.9-22.6-44.1-13.7-16.6-27.5-28.4-26.3-40.2.9-9.1,18.8-9.7,48.5-10.2,6.2-.1,18.5-.4,16.1-5.3-2.1-4.3-11.3-5.7-22.6-7.6M125.7,121.7c-12.7-8.7-35.3-11.7-54-10.7-16.6.9-45.1,6.2-44.1,11.4,1,5.7,19.1,3.9,27.4,3.9,18.2,0,47.1,1.1,51.6,12.9,9.8,25.3-56.7,70.8-70.9,66.5-6.4-2,13-35,20.1-46.9,4.2-7.1,10.6-18.3,5.1-19-6.1-.8-12.8,9.7-17.2,15.7-11.8,16.4-24,34.4-33.7,52.9-3,5.7-13,22.9-9.6,25.1,3.2,2.1,18.4-.9,37.8-8.6,60.8-24.2,88.2-55.6,95.6-81.6,2.6-9.2-1.9-17.2-8.2-21.5M80.6,10.6c-1.3-4.1,19-9.4,41.3-10.4,22.4-1,48.9,3.5,53.9,18.3,8.1,24.3-33,59.8-68.7,77.2-8.8,4.3-14.1,5.4-16.3,5.1-2.1-.3-2.4-2.3-1.7-3.6,1.3-2.6,7.1-7.8,14.8-13.4,40.3-29.5,53.4-51.1,45.8-59.9-4.9-5.6-25.3-9.5-46.5-9.5s-20.9,1.3-22.4-3.7"/>
    </g>
  </g>
</svg>