<?xml version="1.0" encoding="UTF-8"?>
<svg xmlns="http://www.w3.org/2000/svg" version="1.1" xmlns:xlink="http://www.w3.org/1999/xlink" viewBox="0 0 240 234">
  <defs>
    <style>
      .cls-1 {
        mask: url(#mask);
      }

      .cls-2 {
        fill: #fff;
      }

      .cls-2, .cls-3 {
        fill-rule: evenodd;
      }

      .cls-4 {
        fill: #1f9cf0;
      }

      .cls-5 {
        fill: #0065a9;
      }

      .cls-6 {
        isolation: isolate;
      }

      .cls-7 {
        mix-blend-mode: overlay;
        opacity: .2;
      }

      .cls-8 {
        fill: #007acc;
      }

      .cls-3 {
        fill: url(#linear-gradient);
      }
    </style>
    <mask id="mask" x="2.3" y="0" width="235.4" height="234" maskUnits="userSpaceOnUse">
      <g id="mask0">
        <path class="cls-2" d="M169.2,233c3.7,1.4,7.9,1.4,11.7-.4l48.4-23.3c5.1-2.4,8.3-7.6,8.3-13.2V38c0-5.6-3.2-10.8-8.3-13.2L180.9,1.4c-4.9-2.4-10.7-1.8-15,1.3-.6.4-1.2.9-1.8,1.5l-92.7,84.6-40.4-30.7c-3.8-2.9-9-2.6-12.5.6l-13,11.8c-4.3,3.9-4.3,10.6,0,14.5l35,31.9-35,31.9c-4.3,3.9-4.3,10.6,0,14.5l13,11.8c3.5,3.2,8.7,3.4,12.5.6l40.4-30.7,92.7,84.6c1.5,1.5,3.2,2.6,5,3.3ZM178.9,63.6l-70.3,53.4,70.3,53.4V63.6Z"/>
      </g>
    </mask>
    <linearGradient id="linear-gradient" x1="119.9" y1="234" x2="119.9" y2="0" gradientTransform="translate(0 234) scale(1 -1)" gradientUnits="userSpaceOnUse">
      <stop offset="0" stop-color="#fff"/>
      <stop offset="1" stop-color="#fff" stop-opacity="0"/>
    </linearGradient>
  </defs>
  <!-- Generator: Adobe Illustrator 28.7.4, SVG Export Plug-In . SVG Version: 1.2.0 Build 166)  -->
  <g class="cls-6">
    <g id="Layer_1">
      <g class="cls-1">
        <g>
          <path class="cls-5" d="M229.3,24.8L180.9,1.5c-5.6-2.7-12.3-1.6-16.7,2.8L5.5,148.9c-4.3,3.9-4.3,10.6,0,14.5l13,11.8c3.5,3.2,8.8,3.4,12.5.6L222,30.8c6.4-4.9,15.6-.3,15.6,7.8v-.6c0-5.6-3.2-10.8-8.3-13.2Z"/>
          <path class="cls-8" d="M229.3,209.2l-48.5,23.3c-5.6,2.7-12.3,1.6-16.7-2.8L5.5,85.1c-4.3-3.9-4.3-10.6,0-14.5l13-11.8c3.5-3.2,8.8-3.4,12.5-.6l191.1,144.9c6.4,4.9,15.6.3,15.6-7.8v.6c0,5.6-3.2,10.8-8.3,13.2Z"/>
          <path class="cls-4" d="M180.9,232.6c-5.6,2.7-12.3,1.6-16.7-2.8,5.4,5.4,14.7,1.6,14.7-6.1V10.4c0-7.7-9.3-11.5-14.7-6.1,4.4-4.4,11.1-5.5,16.7-2.8l48.5,23.3c5.1,2.4,8.3,7.6,8.3,13.2v158c0,5.6-3.2,10.8-8.3,13.2l-48.5,23.3Z"/>
          <g class="cls-7">
            <path class="cls-3" d="M169.1,233c3.7,1.4,7.9,1.4,11.7-.4l48.4-23.3c5.1-2.4,8.3-7.6,8.3-13.2V38c0-5.7-3.2-10.8-8.3-13.2L180.8,1.4c-4.9-2.4-10.7-1.8-15,1.3-.6.4-1.2.9-1.8,1.5l-92.7,84.6-40.4-30.7c-3.8-2.9-9-2.6-12.5.6l-13,11.8c-4.3,3.9-4.3,10.6,0,14.5l35,31.9-35,31.9c-4.3,3.9-4.3,10.6,0,14.5l13,11.8c3.5,3.2,8.7,3.4,12.5.6l40.4-30.7,92.7,84.6c1.5,1.5,3.2,2.6,5,3.3ZM178.7,63.6l-70.3,53.4,70.3,53.4V63.6Z"/>
          </g>
        </g>
      </g>
    </g>
  </g>
</svg>